<svg xmlns="http://www.w3.org/2000/svg" width="14" height="20" viewBox="0 0 14 20">
    <path fill="#00DDBE" fill-rule="evenodd" d="M7.811 13.82v2.217c0 .5-.406.908-.908.908-.501 0-.908-.407-.908-.908V13.82c-.425-.29-.704-.778-.704-1.332 0-.89.721-1.613 1.612-1.613.89 0 1.613.723 1.613 1.613 0 .554-.28 1.042-.705 1.332zM3.94 4.558c0-1.634 1.33-2.963 2.963-2.963 1.634 0 2.963 1.33 2.963 2.963v3.46H3.94v-3.46zm8.09 3.46h-.57v-3.46C11.46 2.045 9.418 0 6.904 0 4.39 0 2.345 2.045 2.345 4.558v3.46h-.57C.795 8.019 0 8.814 0 9.794v8.234c0 .98.795 1.775 1.775 1.775H12.03c.98 0 1.776-.795 1.776-1.775V9.793c0-.98-.795-1.774-1.776-1.774z"/>
</svg>
