<svg xmlns="http://www.w3.org/2000/svg" xmlns:xlink="http://www.w3.org/1999/xlink" width="537" height="537" viewBox="0 0 537 537">
    <defs>
        <path id="vhw90h6f6a" d="M0.079 0.167L6.282 0.167 6.282 44.188 0.079 44.188z"/>
        <path id="hz1j3m74dc" d="M0.289 0.167L6.492 0.167 6.492 44.188 0.289 44.188z"/>
        <path id="yu3r0j0ste" d="M0 536.889L558.93 536.889 558.93 0.322 0 0.322z"/>
        <path id="dbsw78fgvg" d="M38.192.96c-3.623 5.732-9.266 9.707-15.882 11.192-6.617 1.482-13.455.29-19.152-3.33-.783-.486-1.772-.343-2.373.304-.077.083-.149.175-.212.275-.554.875-.292 2.034.582 2.588l.313.196c6.512 4.014 14.192 5.302 21.666 3.624C30.727 14.105 37.2 9.545 41.359 2.967c.554-.873.293-2.033-.58-2.587-.296-.208-.637-.306-.98-.306-.623 0-1.25.321-1.607.886z"/>
        <path id="kx17aowtni" d="M14.754.236L8.763.374C4.726.467 1.113 3.309.486 7.295.38 7.965.332 8.653.35 9.355l.608 25.903h23.222l-.607-26.436c-.017-.7-.095-1.386-.232-2.05-.796-3.889-4.423-6.537-8.381-6.538l-.205.002z"/>
        <path id="57dzyhw8kk" d="M5.368.207C2.466.207.114 2.56.114 5.458v7.055c0 2.9 2.352 5.251 5.254 5.251h1.231c2.901 0 5.254-2.351 5.254-5.251V5.458c0-2.9-2.353-5.25-5.254-5.25H5.368z"/>
        <path id="h5ycyikkdm" d="M.132 1.787c-.066 1.03.65 1.948 1.68 2.051 6.745.666 12.83 3.925 17.13 9.175 4.3 5.248 6.298 11.858 5.636 18.616-.08 1.04.65 1.95 1.679 2.052.099.01.198.01.295.005l.05-.004c.881-.075 1.612-.77 1.703-1.685.044-.465.08-.931.103-1.397.062-1.187.05-2.37-.03-3.543l-.013-.187c-.447-5.92-2.69-11.552-6.527-16.236-2.609-3.184-5.789-5.73-9.35-7.535l-.004-.002C9.307 1.487 5.827.467 2.178.106c-.063-.007-.125-.01-.187-.01C1.04.096.226.819.13 1.787z"/>
        <path id="4jy5k0taeo" d="M16.953.248C9.628 4.056 4.226 10.492 1.743 18.37-.701 26.124-.031 34.362 3.625 41.61l.18.35c.506.973 1.708 1.353 2.68.847.113-.058.216-.126.311-.2.738-.577.978-1.61.534-2.482-3.313-6.35-3.958-13.69-1.796-20.555 2.165-6.864 6.873-12.474 13.255-15.79.975-.509 1.392-1.754.846-2.684-.355-.681-1.05-1.072-1.767-1.072-.309 0-.622.072-.914.224z"/>
        <path id="5v8780blvq" d="M5.652.173C2.573.173.078 2.668.078 5.744v7.486c0 3.077 2.495 5.571 5.574 5.571H6.96c3.078 0 5.574-2.494 5.574-5.57V5.743c0-3.076-2.496-5.57-5.574-5.57H5.652z"/>
        <path id="4babx3n0ts" d="M.553 1.343c-.484.98-.159 2.173.806 2.695 6.333 3.412 10.957 9.091 13.023 15.99 2.063 6.898 1.32 14.186-2.092 20.532-.503.984-.16 2.174.805 2.696.095.049.19.09.288.125l.05.017c.894.287 1.893-.096 2.356-.954.233-.437.458-.878.672-1.325.546-1.137 1.018-2.3 1.418-3.48l.064-.189c1.983-5.978 2.089-12.41.246-18.566-1.253-4.184-3.326-7.977-6.075-11.202l-.003-.003C9.66 4.804 6.67 2.38 3.245.534c-.3-.161-.622-.238-.94-.238-.707 0-1.392.38-1.752 1.047z"/>
        <path id="fyre573wcu" d="M15.598.058L9.24.203C4.957.302 1.124 3.317.459 7.547c-.112.711-.162 1.44-.145 2.186l.645 27.482h24.638l-.644-28.048c-.017-.744-.101-1.471-.246-2.176-.844-4.125-4.692-6.935-8.892-6.936l-.217.003z"/>
        <path id="qewdf8i5ow" d="M32.307 1.68c-1.174 6.815-4.934 12.767-10.587 16.756-5.653 3.99-12.52 5.538-19.342 4.366-1.05-.158-2.029.518-2.209 1.558-.017.098-.026.196-.027.293v.064c.014.9.666 1.693 1.587 1.851.47.08.942.15 1.413.208 1.225.153 2.45.23 3.67.23h.077c6.068-.01 11.977-1.877 17.036-5.447 6.489-4.58 10.803-11.41 12.15-19.232.018-.099.026-.198.029-.296v-.063c-.016-.899-.669-1.69-1.589-1.847-.095-.012-.189-.02-.281-.02-.932 0-1.762.633-1.927 1.578z"/>
        <path id="zy887hwr1y" d="M14.7.138l-6.11.14C4.47.374.786 3.273.15 7.339c-.11.683-.159 1.384-.142 2.1l.618 26.415H24.31l-.62-26.96c-.016-.713-.096-1.413-.236-2.09-.81-3.965-4.508-6.667-8.546-6.667L14.7.138z"/>
        <path id="wrpks8s5dA" d="M24.02.096c-1.03.137-1.724 1.19-1.53 2.228 1.268 6.8-.193 13.687-4.107 19.39-3.915 5.703-9.852 9.559-16.621 10.808-1.04.204-1.722 1.19-1.528 2.229.192 1.037 1.191 1.722 2.228 1.529l.371-.07c7.65-1.523 14.282-5.891 18.704-12.335 4.492-6.544 6.166-14.447 4.712-22.25C26.078.706 25.273.064 24.37.064c-.116 0-.233.01-.35.032z"/>
        <path id="5t1nqm8lpC" d="M5.616.047C2.657.047.258 2.445.258 5.402v7.194c0 2.958 2.4 5.355 5.358 5.355h1.256c2.96 0 5.357-2.397 5.357-5.355V5.402c0-2.957-2.398-5.355-5.357-5.355H5.616z"/>
        <path id="ynflarmloE" d="M0 536.893L558.93 536.893 558.93 0.322 0 0.322z"/>
    </defs>
    <g fill="none" fill-rule="evenodd">
        <g>
            <g>
                <g>
                    <g>
                        <g>
                            <g>
                                <g>
                                    <g transform="translate(-725 -147) translate(120 -25) translate(10) translate(577.578 64.078) translate(0 108)">
                                        <g transform="translate(40.113 492.7)">
                                            <mask id="4j6bn4t2fb" fill="#fff">
                                                <use xlink:href="#vhw90h6f6a"/>
                                            </mask>
                                            <path fill="#133055" d="M6.28 41.332c.037 1.543-1.12 2.821-2.583 2.856-1.463.035-2.676-1.188-2.713-2.731L.08 3.023C.043 1.48 1.199.203 2.663.167 4.125.133 5.34 1.355 5.376 2.898l.905 38.434z" mask="url(#4j6bn4t2fb)"/>
                                        </g>
                                        <g transform="translate(50.049 492.7)">
                                            <mask id="szavxsm0rd" fill="#fff">
                                                <use xlink:href="#hz1j3m74dc"/>
                                            </mask>
                                            <path fill="#133055" d="M6.491 41.332c.036 1.543-1.12 2.821-2.583 2.856-1.463.035-2.677-1.188-2.713-2.731L.29 3.023C.254 1.48 1.41.203 2.873.167 4.335.133 5.55 1.355 5.587 2.898l.904 38.434z" mask="url(#szavxsm0rd)"/>
                                        </g>
                                        <path fill="#009FDA" d="M244.44 304.14c0 3.255-2.635 5.892-5.887 5.892h-61.825c-3.252 0-5.888-2.637-5.888-5.891s2.636-5.892 5.888-5.892h61.825c3.252 0 5.888 2.638 5.888 5.892M489.184 470.322c0 3.66-2.965 6.628-6.624 6.628H311.447c-3.659 0-6.624-2.967-6.624-6.628v-5.246c0-3.66 2.965-6.628 6.624-6.628H482.56c3.659 0 6.624 2.968 6.624 6.628v5.246z"/>
                                        <mask id="wbypkkrnrf" fill="#fff">
                                            <use xlink:href="#yu3r0j0ste"/>
                                        </mask>
                                        <path fill="#009FDA" d="M120.829 524.175L132.421 524.175 132.421 498.216 120.829 498.216zM284.959 524.175L296.552 524.175 296.552 498.216 284.959 498.216z" mask="url(#wbypkkrnrf)"/>
                                        <path fill="#4BC6F0" d="M313.53 491.632c0 6.32-5.939 11.444-13.265 11.444H117.496c-7.326 0-13.265-5.124-13.265-11.444V317.426c0-6.32 5.939-11.444 13.265-11.444h182.77c7.325 0 13.265 5.123 13.265 11.444v174.206z" mask="url(#wbypkkrnrf)"/>
                                        <path fill="#009FDA" d="M190.011 298.249L225.337 298.249 225.337 262.923 190.011 262.923z" mask="url(#wbypkkrnrf)"/>
                                        <path fill="#4BC6F0" d="M190.011 262.924L121.565 196.092 294.887 196.092 225.337 262.924z" mask="url(#wbypkkrnrf)"/>
                                        <path fill="#009FDA" d="M114.941 399.901L300.407 399.901 300.407 318.157 114.941 318.157z" mask="url(#wbypkkrnrf)"/>
                                        <path fill="#F2D021" d="M137.573 477.227c0 2.135-1.73 3.866-3.864 3.866s-3.864-1.731-3.864-3.866v-50.262c0-2.135 1.73-3.866 3.864-3.866s3.864 1.73 3.864 3.866v50.262zM156.709 477.227c0 2.135-1.73 3.866-3.864 3.866s-3.864-1.731-3.864-3.866v-50.262c0-2.135 1.73-3.866 3.864-3.866s3.864 1.73 3.864 3.866v50.262zM186.15 477.227c0 2.135-1.73 3.866-3.865 3.866-2.133 0-3.863-1.731-3.863-3.866v-50.262c0-2.135 1.73-3.866 3.863-3.866 2.134 0 3.864 1.73 3.864 3.866v50.262zM204.918 477.227c0 2.135-1.73 3.866-3.864 3.866s-3.864-1.731-3.864-3.866v-50.262c0-2.135 1.73-3.866 3.864-3.866s3.864 1.73 3.864 3.866v50.262z" mask="url(#wbypkkrnrf)"/>
                                        <path fill="#FFF" d="M140.333 449.334c0 3.813-3.09 6.904-6.9 6.904-3.81 0-6.9-3.091-6.9-6.904 0-3.813 3.09-6.904 6.9-6.904 3.81 0 6.9 3.091 6.9 6.904M159.745 463.142c0 3.813-3.09 6.904-6.9 6.904-3.81 0-6.9-3.091-6.9-6.904 0-3.813 3.09-6.904 6.9-6.904 3.81 0 6.9 3.091 6.9 6.904M189.185 470.046c0 3.813-3.089 6.904-6.9 6.904-3.81 0-6.9-3.091-6.9-6.904 0-3.812 3.09-6.904 6.9-6.904 3.811 0 6.9 3.092 6.9 6.904M207.953 435.526c0 3.813-3.089 6.904-6.9 6.904-3.81 0-6.899-3.091-6.899-6.904 0-3.813 3.089-6.904 6.9-6.904 3.81 0 6.9 3.091 6.9 6.904" mask="url(#wbypkkrnrf)"/>
                                        <path fill="#009FDA" d="M347.795 524.175L356.061 524.175 356.061 476.951 347.795 476.951zM439.425 524.175L447.691 524.175 447.691 476.951 439.425 476.951z" mask="url(#wbypkkrnrf)"/>
                                        <path fill="#FFF" d="M265.699 449.904c-2.524 0-4.577-2.053-4.577-4.578 0-2.041 1.351-3.755 3.2-4.344v-8.349c0-.76.617-1.375 1.376-1.375.76 0 1.376.615 1.376 1.375v8.35c1.848.588 3.2 2.302 3.2 4.344.002 2.524-2.052 4.577-4.575 4.577m16.564-4.578c0-.76.615-1.377 1.375-1.377h4.054c-.315-5.045-2.328-9.636-5.477-13.204l-2.859 2.861c-.269.27-.62.404-.973.404-.351 0-.704-.134-.973-.404-.538-.537-.538-1.408 0-1.946l2.86-2.86c-3.566-3.152-8.154-5.169-13.196-5.48h-2.752c-5.042.312-9.629 2.328-13.195 5.48l2.858 2.86c.539.538.539 1.409 0 1.946-.268.27-.62.404-.973.404-.351 0-.704-.134-.973-.404l-2.858-2.86c-3.15 3.567-5.164 8.157-5.476 13.203h4.055c.76 0 1.375.616 1.375 1.377 0 .76-.615 1.377-1.375 1.377h-4.054c.313 5.045 2.328 9.635 5.477 13.202l2.858-2.86c.537-.538 1.408-.538 1.946 0s.538 1.409 0 1.947l-2.86 2.859c3.566 3.152 8.153 5.167 13.196 5.48v-4.056c0-.76.616-1.376 1.376-1.376.76 0 1.376.616 1.376 1.376v4.056c5.041-.313 9.63-2.329 13.196-5.48l-2.86-2.86c-.538-.537-.538-1.408 0-1.945.538-.539 1.407-.539 1.945 0l2.86 2.86c3.148-3.568 5.163-8.157 5.476-13.203h-4.054c-.76 0-1.375-.617-1.375-1.377" mask="url(#wbypkkrnrf)"/>
                                        <path fill="#04518C" d="M201.054 366.301L261.216 366.301 261.216 357.188 201.054 357.188zM201.054 343.77L284.868 343.77 284.868 334.657 201.054 334.657zM201.054 389.867L234.169 389.867 234.169 380.754 201.054 380.754zM184.998 360.272c0 15.633-12.665 28.306-28.29 28.306-15.623 0-28.288-12.673-28.288-28.306 0-15.634 12.665-28.307 28.289-28.307 15.624 0 28.289 12.673 28.289 28.307" mask="url(#wbypkkrnrf)"/>
                                        <path fill="#00DDBE" d="M173.2 360.272c0 9.113-7.383 16.5-16.491 16.5-9.107 0-16.49-7.387-16.49-16.5 0-9.114 7.383-16.502 16.49-16.502 9.108 0 16.49 7.388 16.49 16.502" mask="url(#wbypkkrnrf)"/>
                                        <path fill="#009FDA" d="M183.828 150.016L176.384 170.301 197.612 166.666 205.056 146.381z" mask="url(#wbypkkrnrf)"/>
                                        <path fill="#F2D021" d="M163.225 154.031L177.058 170.548 184.502 150.264 170.669 133.746z" mask="url(#wbypkkrnrf)"/>
                                        <path fill="#4BC6F0" d="M170.728 133.587L184.272 149.847 205.115 146.222 191.576 129.944z" mask="url(#wbypkkrnrf)"/>
                                        <path fill="#009FDA" d="M236.925 168.112L218.512 173.975 232.726 186.996 251.138 181.133z" mask="url(#wbypkkrnrf)"/>
                                        <path fill="#F2D021" d="M222.788 155.742L218.707 174.588 237.12 168.725 241.201 149.88z" mask="url(#wbypkkrnrf)"/>
                                        <path fill="#4BC6F0" d="M241.345 149.834L237.289 168.334 251.283 181.088 255.356 162.582z" mask="url(#wbypkkrnrf)"/>
                                        <path fill="#009FDA" d="M166.127 84.845L183.254 104.114 191.399 79.722 174.272 60.453z" mask="url(#wbypkkrnrf)"/>
                                        <path fill="#F2D021" d="M158.733 108.792L183.895 103.544 166.768 84.275 141.606 89.523z" mask="url(#wbypkkrnrf)"/>
                                        <path fill="#4BC6F0" d="M141.472 89.372L166.199 84.282 174.138 60.301 149.395 65.375z" mask="url(#wbypkkrnrf)"/>
                                        <path fill="#009FDA" d="M239.087 108.801L245.836 130.9 261.582 114.082 254.833 91.982z" mask="url(#wbypkkrnrf)"/>
                                        <path fill="#F2D021" d="M224.119 125.538L246.571 130.676 239.821 108.576 217.369 103.438z" mask="url(#wbypkkrnrf)"/>
                                        <path fill="#4BC6F0" d="M217.316 103.265L239.356 108.368 254.781 91.809 232.734 86.685z" mask="url(#wbypkkrnrf)"/>
                                        <path fill="#133055" d="M515.257 491.606c-.456 1.474-1.96 2.317-3.357 1.884-1.399-.434-2.16-1.979-1.703-3.454l11.37-36.721c.458-1.474 1.96-2.318 3.358-1.884 1.398.432 2.16 1.979 1.704 3.453l-11.372 36.722zM541.547 490.685c.218 1.529-.78 2.935-2.228 3.142-1.45.207-2.799-.863-3.017-2.392l-5.433-38.057c-.218-1.528.78-2.934 2.228-3.142 1.449-.206 2.8.864 3.017 2.391l5.433 38.058z" mask="url(#wbypkkrnrf)"/>
                                    </g>
                                    <g transform="translate(-725 -147) translate(120 -25) translate(10) translate(577.578 64.078) translate(0 108) translate(479.021 425.609)">
                                        <mask id="4dmjxo502h" fill="#fff">
                                            <use xlink:href="#dbsw78fgvg"/>
                                        </mask>
                                        <path fill="#003055" d="M48.611 1.971L18.808 34.077 -6.334 10.718 23.469 -21.388z" mask="url(#4dmjxo502h)"/>
                                    </g>
                                    <g transform="translate(-725 -147) translate(120 -25) translate(10) translate(577.578 64.078) translate(0 108) translate(515.607 417.948)">
                                        <mask id="jewtf4ifsj" fill="#fff">
                                            <use xlink:href="#kx17aowtni"/>
                                        </mask>
                                        <path fill="#009FDA" d="M-3.789 39.393L28.313 39.393 28.313 -3.901 -3.789 -3.901z" mask="url(#jewtf4ifsj)"/>
                                    </g>
                                    <g transform="translate(-725 -147) translate(120 -25) translate(10) translate(577.578 64.078) translate(0 108) translate(521.563 396.667)">
                                        <mask id="8oq61b7tvl" fill="#fff">
                                            <use xlink:href="#57dzyhw8kk"/>
                                        </mask>
                                        <path fill="#009FDA" d="M-4.02 21.9L15.986 21.9 15.986 -3.929 -4.02 -3.929z" mask="url(#8oq61b7tvl)"/>
                                    </g>
                                    <g transform="translate(-725 -147) translate(120 -25) translate(10) translate(577.578 64.078) translate(0 108) translate(525.817 424.757)">
                                        <mask id="tre6swz72n" fill="#fff">
                                            <use xlink:href="#h5ycyikkdm"/>
                                        </mask>
                                        <path fill="#003055" d="M-1.281 39.846L-4.421 -3.592 30.127 -6.091 33.266 37.346z" mask="url(#tre6swz72n)"/>
                                    </g>
                                    <g transform="translate(-725 -147) translate(120 -25) translate(10) translate(577.578 64.078) translate(0 108) translate(17.868 462.21)">
                                        <mask id="cthr3y0uvp" fill="#fff">
                                            <use xlink:href="#4jy5k0taeo"/>
                                        </mask>
                                        <path fill="#003055" d="M18.657 -7.332L-17.95 21.301 4.472 49.993 41.079 21.36z" mask="url(#cthr3y0uvp)"/>
                                    </g>
                                    <g transform="translate(-725 -147) translate(120 -25) translate(10) translate(577.578 64.078) translate(0 108) translate(40.84 434.972)">
                                        <mask id="m7wb0mqm0r" fill="#fff">
                                            <use xlink:href="#5v8780blvq"/>
                                        </mask>
                                        <path fill="#009FDA" d="M-4.308 23.189L16.918 23.189 16.918 -4.215 -4.308 -4.215z" mask="url(#m7wb0mqm0r)"/>
                                    </g>
                                    <g transform="translate(-725 -147) translate(120 -25) translate(10) translate(577.578 64.078) translate(0 108) translate(56.155 461.36)">
                                        <mask id="fmti2qysrt" fill="#fff">
                                            <use xlink:href="#4babx3n0ts"/>
                                        </mask>
                                        <path fill="#003055" d="M-16.384 38.027L-1.705 -5.785 33.139 5.901 18.46 49.711z" mask="url(#fmti2qysrt)"/>
                                    </g>
                                    <g transform="translate(-725 -147) translate(120 -25) translate(10) translate(577.578 64.078) translate(0 108) translate(34.033 457.955)">
                                        <mask id="mhah2butvv" fill="#fff">
                                            <use xlink:href="#fyre573wcu"/>
                                        </mask>
                                        <path fill="#009FDA" d="M-4.076 41.602L29.984 41.602 29.984 -4.333 -4.076 -4.333z" mask="url(#mhah2butvv)"/>
                                    </g>
                                    <g transform="translate(-725 -147) translate(120 -25) translate(10) translate(577.578 64.078) translate(0 108) translate(371.816 295.372)">
                                        <mask id="py8cwz4i6x" fill="#fff">
                                            <use xlink:href="#qewdf8i5ow"/>
                                        </mask>
                                        <path fill="#003055" d="M-4.075 31.224L40.32 31.224 40.32 -4.116 -4.075 -4.116z" mask="url(#py8cwz4i6x)"/>
                                    </g>
                                    <g transform="translate(-725 -147) translate(120 -25) translate(10) translate(577.578 64.078) translate(0 108) translate(353.948 313.248)">
                                        <mask id="ra18kmh8rz" fill="#fff">
                                            <use xlink:href="#zy887hwr1y"/>
                                        </mask>
                                        <path fill="#009FDA" d="M-4.211 40.07L28.525 40.07 28.525 -4.081 -4.211 -4.081z" mask="url(#ra18kmh8rz)"/>
                                    </g>
                                    <g transform="translate(-725 -147) translate(120 -25) translate(10) translate(577.578 64.078) translate(0 108) translate(353.948 286.86)">
                                        <mask id="3rxbxbxsuB" fill="#fff">
                                            <use xlink:href="#wrpks8s5dA"/>
                                        </mask>
                                        <path fill="#003055" d="M-4.016 40.53L30.975 40.53 30.975 -4.154 -4.016 -4.154z" mask="url(#3rxbxbxsuB)"/>
                                    </g>
                                    <g transform="translate(-725 -147) translate(120 -25) translate(10) translate(577.578 64.078) translate(0 108) translate(359.904 291.116)">
                                        <mask id="o2xsqxxuxD" fill="#fff">
                                            <use xlink:href="#5t1nqm8lpC"/>
                                        </mask>
                                        <path fill="#009FDA" d="M-3.957 22.169L16.446 22.169 16.446 -4.171 -3.957 -4.171z" mask="url(#o2xsqxxuxD)"/>
                                    </g>
                                    <g transform="translate(-725 -147) translate(120 -25) translate(10) translate(577.578 64.078) translate(0 108)">
                                        <path fill="#FFF" d="M462.69 442.71c0 3.66-2.967 6.627-6.625 6.627H337.942c-3.658 0-6.624-2.967-6.624-6.628v-87.543c0-3.66 2.966-6.628 6.624-6.628h118.123c3.658 0 6.624 2.967 6.624 6.628v87.543z"/>
                                        <mask id="2ou57lqd1F" fill="#fff">
                                            <use xlink:href="#ynflarmloE"/>
                                        </mask>
                                        <path fill="#04518C" d="M331.318 368.881L462.689 368.881 462.689 348.445 331.318 348.445z" mask="url(#2ou57lqd1F)"/>
                                        <path fill="#FFF" d="M350.362 358.663c0 3.203-2.595 5.8-5.796 5.8s-5.796-2.597-5.796-5.8 2.595-5.8 5.796-5.8c3.2 0 5.796 2.597 5.796 5.8M360.572 364.463c-3.2 0-5.795-2.597-5.795-5.8s2.595-5.8 5.795-5.8c3.202 0 5.796 2.597 5.796 5.8s-2.594 5.8-5.796 5.8zM383.57 358.663c0 3.203-2.596 5.8-5.797 5.8-3.2 0-5.796-2.597-5.796-5.8s2.595-5.8 5.796-5.8 5.796 2.597 5.796 5.8" mask="url(#2ou57lqd1F)"/>
                                        <path fill="#009FDA" d="M214.05 26.579L226.787 52.738 243.067 28.722 230.33 2.563z" mask="url(#2ou57lqd1F)"/>
                                        <path fill="#F2D021" d="M198.722 50.342L227.657 52.314 214.92 26.156 185.984 24.183z" mask="url(#2ou57lqd1F)"/>
                                        <path fill="#4BC6F0" d="M185.884 23.978L214.3 25.989 230.23 2.357 201.802 0.322z" mask="url(#2ou57lqd1F)"/>
                                        <path fill="#009FDA" d="M304.823 189.465c0 3.66-2.966 6.628-6.624 6.628H116.598c-3.659 0-6.624-2.967-6.624-6.628v-2.209c0-3.66 2.965-6.628 6.624-6.628h181.6c3.659 0 6.625 2.968 6.625 6.628v2.21z" mask="url(#2ou57lqd1F)"/>
                                        <path fill="#00DDBE" d="M389.025 389.627h10.811c-.559-5.674-5.114-10.17-10.811-10.636v10.636z" mask="url(#2ou57lqd1F)"/>
                                        <path fill="#4BC6F0" d="M386.612 391.877v-11.693c-5.323.615-9.457 5.139-9.457 10.63 0 5.912 4.789 10.704 10.697 10.704 5.55 0 10.111-4.228 10.644-9.641h-11.884z" mask="url(#2ou57lqd1F)"/>
                                        <path fill="#F2D021" d="M430.184 389.627h10.811c-.559-5.674-5.115-10.17-10.811-10.636v10.636z" mask="url(#2ou57lqd1F)"/>
                                        <path fill="#00DDBE" d="M427.771 391.877v-11.693c-5.324.615-9.457 5.139-9.457 10.63 0 5.912 4.789 10.704 10.697 10.704 5.55 0 10.111-4.228 10.644-9.641h-11.884z" mask="url(#2ou57lqd1F)"/>
                                        <path fill="#04518C" d="M364.933 415.508L454.358 415.508 454.358 409.829 364.933 409.829zM364.933 427.018L454.358 427.018 454.358 421.339 364.933 421.339zM364.933 438.676L454.358 438.676 454.358 432.997 364.933 432.997z" mask="url(#2ou57lqd1F)"/>
                                        <path fill="#F2D021" d="M339.66 438.231L358.677 438.231 358.677 379.789 339.66 379.789z" mask="url(#2ou57lqd1F)"/>
                                    </g>
                                </g>
                                <g fill="#F2D021">
                                    <path d="M29.868 11.925c-.12-1.557-.159-3.062.135-4.499l4.37 4.366c-1.435.295-2.942.255-4.505.133zM15.131 26.674c-.154-2.031-.173-3.898.452-5.663l2.607 2.609 2.61 2.611c-1.76.62-3.626.599-5.669.443zm-3.216 3.218c.123 1.561.162 3.07-.132 4.506l-4.363-4.37c1.435-.296 2.939-.258 4.495-.136zm13.08-6.84c-.265.359-.568.707-.91 1.049-.083.083-.166.163-.25.24l-3.17-3.174-3.202-3.206c.073-.08.15-.16.23-.238.353-.349.703-.653 1.058-.917l1.35 1.352 4.895 4.894zm1.656-7.907c.116 1.56.156 3.068-.135 4.5l-2.191-2.19-2.172-2.172c1.427-.292 2.932-.255 4.498-.138zm12.163-5.788c-.344.345-.69.646-1.041.91l-6.25-6.246c.264-.353.568-.7.912-1.047.68-.681.68-1.784-.001-2.465-.681-.68-1.783-.678-2.462.002-.938.94-1.658 1.907-2.203 2.958l-.01.022c-1.463 2.712-1.566 5.52-1.399 8.14-2.689-.172-5.433-.07-8.153 1.416l-.005.001-.014.008-.026.013-.01.008c-1.017.535-1.97 1.242-2.915 2.176-.598.6-1.092 1.204-1.52 1.841-.003.006-.007.01-.011.014l-.012.018-.008.012-.008.012c-2.08 3.038-2.24 6.243-2.055 9.23-2.616-.167-5.417-.064-8.127 1.4-.01.005-.02.006-.03.011-1.05.547-2.017 1.269-2.956 2.206-.68.68-.68 1.784-.001 2.465.341.34.786.51 1.232.51.446 0 .89-.17 1.231-.51.345-.346.692-.649 1.047-.913l6.24 6.254c-.263.351-.564.697-.91 1.043-.679.681-.678 1.784.003 2.465.338.338.784.508 1.229.508.446 0 .893-.17 1.233-.511.926-.929 1.64-1.883 2.181-2.914l.002-.002.002-.006c.006-.012.014-.023.019-.034.003-.006.004-.013.008-.02 1.477-2.727 1.577-5.466 1.402-8.15.571.036 1.148.064 1.733.064 2.486 0 5.071-.425 7.539-2.134.002 0 .003-.003.004-.003.649-.448 1.252-.953 1.842-1.542.91-.912 1.626-1.868 2.184-2.92l.007-.01.007-.015.005-.006v-.003c1.479-2.722 1.582-5.463 1.41-8.178.57.036 1.146.065 1.73.065 2.112 0 4.298-.314 6.413-1.464l.016-.006.03-.016.014-.007.007-.006c1.027-.541 1.979-1.252 2.904-2.178.68-.68.68-1.783.002-2.464-.678-.682-1.781-.683-2.461-.002z" transform="translate(-725 -147) translate(120 -25) translate(10) translate(577.578 64.078) translate(0 108) rotate(-3 4065.13 -3498.253)"/>
                                </g>
                            </g>
                        </g>
                    </g>
                </g>
            </g>
        </g>
    </g>
</svg>
