<svg xmlns="http://www.w3.org/2000/svg" width="20" height="19" viewBox="0 0 20 19">
    <g fill="none" fill-rule="evenodd">
        <g fill="#0077B5">
            <g>
                <g>
                    <g>
                        <g>
                            <g>
                                <g>
                                    <g>
                                        <path d="M7.143 5.714h3.952V7.74h.057c.55-.987 1.897-2.026 3.903-2.026C19.228 5.714 20 8.311 20 11.69v6.882h-4.121v-6.1c0-1.454-.03-3.326-2.143-3.326-2.146 0-2.475 1.583-2.475 3.22v6.206H7.143V5.714zM4.286 2.143c0 1.183-.96 2.143-2.143 2.143C.96 4.286 0 3.326 0 2.143 0 .96.96 0 2.143 0c1.183 0 2.143.96 2.143 2.143zM0 5.714h4.286v12.857H0V5.714z" transform="translate(-391 -490) translate(120 -25) translate(10) translate(0 273) translate(0 164) translate(249 66) translate(12 12)"/>
                                    </g>
                                </g>
                            </g>
                        </g>
                    </g>
                </g>
            </g>
        </g>
    </g>
</svg>
