<svg xmlns="http://www.w3.org/2000/svg" xmlns:xlink="http://www.w3.org/1999/xlink" width="75" height="84" viewBox="0 0 75 84">
    <defs>
        <path id="6o8606cqza" d="M14.398.583C11.64 1.786 9.183 3.457 7.115 5.507l-.003.002c-2.32 2.296-4.15 5.068-5.373 8.188-1.798 4.591-2.105 9.508-.936 14.192l.038.147c.236.926.531 1.842.884 2.744.138.353.285.703.438 1.052.306.684 1.055 1.035 1.763.87l.04-.01c.076-.02.153-.047.229-.08.777-.34 1.114-1.228.785-2.009-2.25-5.051-2.382-10.661-.37-15.804 2.015-5.144 5.932-9.202 11.03-11.427.778-.342 1.102-1.232.787-2.01-.254-.57-.817-.91-1.408-.91-.208 0-.419.042-.621.131z"/>
        <path id="ugtrlvalfc" d="M26.848 1.422c-1.114 5.334-4.347 9.977-9.058 12.997-4.713 3.018-10.36 4.079-15.895 2.985-.847-.166-1.717.37-1.842 1.181-.172.817.373 1.616 1.218 1.783 6.353 1.255 12.832.037 18.239-3.427 5.325-3.409 8.984-8.595 10.334-14.624l.063-.292c.172-.817-.373-1.616-1.219-1.783-.097-.02-.192-.029-.287-.03h-.027c-.725 0-1.368.492-1.526 1.21z"/>
        <path id="1mlec34dje" d="M1.234 5.437c-.12.533-.193 1.084-.218 1.648l-.86 21.278 18.948.317.855-20.847c.022-.566-.006-1.12-.084-1.66-.456-3.22-3.364-5.558-6.658-5.687L8.331.292c-.055 0-.112-.003-.167-.004L8.043.287c-3.184 0-6.114 2.07-6.809 5.15z"/>
        <path id="qd9f6tr4kg" d="M.219 4.374L.12 10.127c-.04 2.366 1.848 4.316 4.215 4.356l1.003.017c2.37.04 4.322-1.844 4.361-4.21l.098-5.754C9.838 2.172 7.951.221 5.584.18L4.579.164 4.504.162C2.171.164.258 2.034.22 4.374z"/>
    </defs>
    <g fill="none" fill-rule="evenodd">
        <g>
            <g>
                <g>
                    <g>
                        <g transform="translate(-269 -95) translate(0 -89) translate(136) translate(0 137) translate(133 47)">
                            <circle cx="37" cy="37" r="37" fill="#F2D021"/>
                            <g fill="#143156">
                                <path d="M3.667 34.894c-.136 1.272-1.054 2.149-2.048 1.96-.996-.192-1.691-1.377-1.555-2.65L3.448 2.511C3.584 1.238 4.5.36 5.495.55c.995.191 1.692 1.377 1.556 2.65L3.667 34.893zM20.876 34.516c.128 1.184-.568 2.258-1.556 2.4-.988.144-1.892-.7-2.02-1.882L14.098 5.57c-.129-1.183.567-2.258 1.556-2.401.987-.142 1.89.7 2.02 1.883l3.202 29.464z" transform="translate(25.298 46.8)"/>
                            </g>
                            <g transform="translate(13.298 27.8)">
                                <mask id="b4ku2j6xnb" fill="#fff">
                                    <use xlink:href="#6o8606cqza"/>
                                </mask>
                                <path fill="#123154" d="M27.285 30.39L18.605 -3.946 -9.022 2.886 -0.341 37.22z" mask="url(#b4ku2j6xnb)"/>
                            </g>
                            <g transform="translate(44.298 7.8)">
                                <mask id="qozl4xykrd" fill="#fff">
                                    <use xlink:href="#ugtrlvalfc"/>
                                </mask>
                                <path fill="#123154" d="M-3.515 24.028L32.982 24.628 33.468 -3.039 -3.029 -3.639z" mask="url(#qozl4xykrd)"/>
                            </g>
                            <g transform="translate(27.298 22.8)">
                                <mask id="kkg2ykcg6f" fill="#fff">
                                    <use xlink:href="#1mlec34dje"/>
                                </mask>
                                <path fill="#0C9CD8" d="M22.919 32.076L-3.276 31.636 -2.675 -3.224 23.519 -2.785z" mask="url(#kkg2ykcg6f)"/>
                            </g>
                            <g transform="translate(32.298 4.8)">
                                <mask id="7i85tj9omh" fill="#fff">
                                    <use xlink:href="#qd9f6tr4kg"/>
                                </mask>
                                <path fill="#0C9CD8" d="M12.943 18.003L-3.382 17.726 -3.024 -3.34 13.301 -3.063z" mask="url(#7i85tj9omh)"/>
                            </g>
                        </g>
                    </g>
                </g>
            </g>
        </g>
    </g>
</svg>
