<svg width="144" height="39" viewBox="0 0 144 39" fill="none" xmlns="http://www.w3.org/2000/svg">
<g filter="url(#filter0_dd_928_100887)">
<g clip-path="url(#clip0_928_100887)">
<rect x="3" y="2.22656" width="32" height="32" rx="8" fill="white"/>
<mask id="mask0_928_100887" style="mask-type:luminance" maskUnits="userSpaceOnUse" x="7" y="8" width="24" height="2">
<path d="M7.70117 8.05469H30.2984V9.23027H7.70117V8.05469Z" fill="white"/>
</mask>
<g mask="url(#mask0_928_100887)">
<mask id="mask1_928_100887" style="mask-type:luminance" maskUnits="userSpaceOnUse" x="7" y="5" width="24" height="26">
<path d="M14.729 5.71289C14.6142 5.7134 14.5137 5.73075 14.432 5.77463C13.8493 5.97311 12.8967 6.18435 12.8967 6.18435C12.8967 6.18435 12.5263 6.02566 11.7849 6.3961C11.0441 6.92572 10.8854 7.0844 10.8854 7.0844C10.8854 7.0844 10.6206 8.30233 9.82616 8.30233C9.35011 8.93707 8.29137 10.3137 8.02656 11.2663C7.49694 12.6424 7.70869 13.9659 8.29137 14.7599C9.13836 15.9247 9.87922 17.0365 11.6788 16.7187C13.532 16.2952 13.6907 16.2421 14.0611 16.2421C14.6433 16.2952 15.4372 16.8773 15.4372 16.8773C16.0199 16.8773 16.3372 17.0891 16.3372 17.0891C16.3372 17.0891 16.0724 18.6244 16.1786 18.8361C16.3372 19.1009 17.2898 19.405 17.3429 20.5495C17.396 21.6945 17.7133 22.3297 17.7133 22.3297C17.7133 22.3297 17.6608 22.965 17.1842 23.4941C16.7077 24.0237 17.5016 25.3998 17.8195 25.7177C18.0312 26.2999 18.243 27.1999 18.296 27.6765C18.8496 28.2056 18.8496 28.4704 19.1961 29.6878C19.1961 29.6878 19.4078 30.3231 20.413 29.8465C21.6309 29.6878 21.9483 29.8465 22.5304 28.9995C23.4836 27.9938 23.7484 27.8882 23.8014 27.3586C24.2244 26.6177 24.754 26.406 24.754 26.406C24.754 25.7702 24.8071 25.1355 24.4892 24.9768C25.4949 24.5003 26.2888 23.9706 26.6598 23.7589C26.7654 22.965 26.6067 20.8873 26.2888 20.5495C25.9715 20.0005 26.024 20.2122 26.7389 19.3652C27.6124 18.3596 28.8829 16.9835 28.8829 16.9835C28.8829 16.9835 29.2538 16.3482 29.3594 15.713C30.1003 14.9191 30.8804 13.4899 29.4053 13.9659C28.7772 14.2308 28.2476 14.6374 27.718 14.2308C27.5068 13.5424 27.0302 13.2781 26.6067 13.2781C25.7597 12.1133 25.1245 11.2663 25.1245 11.2663C25.1245 11.2663 25.5847 10.5254 24.7194 9.94325C24.1188 9.14881 24.1188 9.09575 24.1188 9.09575C24.1188 9.09575 24.6479 7.19053 22.6896 7.56096C21.3661 7.5079 19.8752 7.13747 19.5134 7.77271C19.1517 8.09059 18.6134 8.00385 18.3491 7.35891C17.8725 7.0844 17.1312 7.34105 17.1312 7.34105C17.1312 7.34105 16.5112 6.97878 16.8138 6.55529C17.1159 5.97311 17.0255 5.7083 16.2847 5.86698C15.9709 5.88943 15.6581 5.84096 15.3724 5.79249C15.1407 5.75371 14.9275 5.71391 14.7479 5.71289H14.729Z" fill="white"/>
</mask>
<g mask="url(#mask1_928_100887)">
<path d="M6.37305 8.0957L6.3858 9.16924H31.1591L31.1464 8.0957H6.37305Z" fill="#B3A168"/>
</g>
</g>
<mask id="mask2_928_100887" style="mask-type:luminance" maskUnits="userSpaceOnUse" x="13" y="8" width="9" height="2">
<path d="M13.8403 8.05469H21.9388V9.23027H13.8403V8.05469Z" fill="white"/>
</mask>
<g mask="url(#mask2_928_100887)">
<mask id="mask3_928_100887" style="mask-type:luminance" maskUnits="userSpaceOnUse" x="9" y="8" width="16" height="2">
<path d="M10.3458 8.0957C10.2059 8.21867 10.034 8.30235 9.82633 8.30235C9.66306 8.51971 9.43141 8.82432 9.18701 9.16924H24.1598C24.119 9.10495 24.119 9.09576 24.119 9.09576C24.119 9.09576 24.2715 8.54726 24.1098 8.0957H10.3458Z" fill="white"/>
</mask>
<g mask="url(#mask3_928_100887)">
<path d="M14.5107 7.8457L13.8647 9.47284H21.1999L21.8642 7.8457H14.5107Z" fill="#231F20"/>
</g>
</g>
<mask id="mask4_928_100887" style="mask-type:luminance" maskUnits="userSpaceOnUse" x="7" y="6" width="20" height="2">
<path d="M7.70117 6.48828H26.3798V7.66386H7.70117V6.48828Z" fill="white"/>
</mask>
<g mask="url(#mask4_928_100887)">
<mask id="mask5_928_100887" style="mask-type:luminance" maskUnits="userSpaceOnUse" x="7" y="5" width="24" height="26">
<path d="M14.729 5.71289C14.6142 5.7134 14.5137 5.73075 14.432 5.77463C13.8493 5.97311 12.8967 6.18435 12.8967 6.18435C12.8967 6.18435 12.5263 6.02566 11.7849 6.3961C11.0441 6.92572 10.8854 7.0844 10.8854 7.0844C10.8854 7.0844 10.6206 8.30233 9.82616 8.30233C9.35011 8.93707 8.29137 10.3137 8.02656 11.2663C7.49694 12.6424 7.70869 13.9659 8.29137 14.7599C9.13836 15.9247 9.87922 17.0365 11.6788 16.7187C13.532 16.2952 13.6907 16.2421 14.0611 16.2421C14.6433 16.2952 15.4372 16.8773 15.4372 16.8773C16.0199 16.8773 16.3372 17.0891 16.3372 17.0891C16.3372 17.0891 16.0724 18.6244 16.1786 18.8361C16.3372 19.1009 17.2898 19.405 17.3429 20.5495C17.396 21.6945 17.7133 22.3297 17.7133 22.3297C17.7133 22.3297 17.6608 22.965 17.1842 23.4941C16.7077 24.0237 17.5016 25.3998 17.8195 25.7177C18.0312 26.2999 18.243 27.1999 18.296 27.6765C18.8496 28.2056 18.8496 28.4704 19.1961 29.6878C19.1961 29.6878 19.4078 30.3231 20.413 29.8465C21.6309 29.6878 21.9483 29.8465 22.5304 28.9995C23.4836 27.9938 23.7484 27.8882 23.8014 27.3586C24.2244 26.6177 24.754 26.406 24.754 26.406C24.754 25.7702 24.8071 25.1355 24.4892 24.9768C25.4949 24.5003 26.2888 23.9706 26.6598 23.7589C26.7654 22.965 26.6067 20.8873 26.2888 20.5495C25.9715 20.0005 26.024 20.2122 26.7389 19.3652C27.6124 18.3596 28.8829 16.9835 28.8829 16.9835C28.8829 16.9835 29.2538 16.3482 29.3594 15.713C30.1003 14.9191 30.8804 13.4899 29.4053 13.9659C28.7772 14.2308 28.2476 14.6374 27.718 14.2308C27.5068 13.5424 27.0302 13.2781 26.6067 13.2781C25.7597 12.1133 25.1245 11.2663 25.1245 11.2663C25.1245 11.2663 25.5847 10.5254 24.7194 9.94325C24.1188 9.14881 24.1188 9.09575 24.1188 9.09575C24.1188 9.09575 24.6479 7.19053 22.6896 7.56096C21.3661 7.5079 19.8752 7.13747 19.5134 7.77271C19.1517 8.09059 18.6134 8.00385 18.3491 7.35891C17.8725 7.0844 17.1312 7.34105 17.1312 7.34105C17.1312 7.34105 16.5112 6.97878 16.8138 6.55529C17.1159 5.97311 17.0255 5.7083 16.2847 5.86698C15.9709 5.88943 15.6581 5.84096 15.3724 5.79249C15.1407 5.75371 14.9275 5.71391 14.7479 5.71289H14.729Z" fill="white"/>
</mask>
<g mask="url(#mask5_928_100887)">
<path d="M6.38574 6.49805V7.58536H26.0476L26.3389 6.49805H6.38574Z" fill="#231F20"/>
</g>
</g>
<mask id="mask6_928_100887" style="mask-type:luminance" maskUnits="userSpaceOnUse" x="10" y="6" width="4" height="2">
<path d="M10.7056 6.48828H13.1873V7.66386H10.7056V6.48828Z" fill="white"/>
</mask>
<g mask="url(#mask6_928_100887)">
<mask id="mask7_928_100887" style="mask-type:luminance" maskUnits="userSpaceOnUse" x="10" y="6" width="14" height="2">
<path d="M11.6433 6.49805C11.0233 6.94603 10.8856 7.08431 10.8856 7.08431C10.8856 7.08431 10.8335 7.32106 10.708 7.58536H18.4671C18.4238 7.51954 18.384 7.44402 18.3493 7.35881C17.8727 7.08431 17.1313 7.34096 17.1313 7.34096C17.1313 7.34096 16.5114 6.97869 16.814 6.55519C16.8242 6.53529 16.8339 6.51642 16.8425 6.49805H11.6433ZM19.6896 7.58536H23.6108C23.3919 7.50474 23.0939 7.48433 22.6898 7.56087C21.9586 7.53127 21.1765 7.40524 20.5616 7.40524C20.1968 7.40524 19.8912 7.44964 19.6896 7.58536Z" fill="white"/>
</mask>
<g mask="url(#mask7_928_100887)">
<path d="M-4.28266 5.83594L-4.63574 7.80034H13.0831V5.83594H-4.28266Z" fill="#B3A168"/>
</g>
</g>
<mask id="mask8_928_100887" style="mask-type:luminance" maskUnits="userSpaceOnUse" x="21" y="6" width="3" height="2">
<path d="M21.1548 6.48828H23.6366V7.66386H21.1548V6.48828Z" fill="white"/>
</mask>
<g mask="url(#mask8_928_100887)">
<mask id="mask9_928_100887" style="mask-type:luminance" maskUnits="userSpaceOnUse" x="10" y="6" width="14" height="2">
<path d="M11.6433 6.49805C11.0233 6.94603 10.8856 7.08431 10.8856 7.08431C10.8856 7.08431 10.8335 7.32106 10.708 7.58536H18.4671C18.4238 7.51954 18.384 7.44402 18.3493 7.35881C17.8727 7.08431 17.1313 7.34096 17.1313 7.34096C17.1313 7.34096 16.5114 6.97869 16.814 6.55519C16.8242 6.53529 16.8339 6.51642 16.8425 6.49805H11.6433ZM19.6896 7.58536H23.6108C23.3919 7.50474 23.0939 7.48433 22.6898 7.56087C21.9586 7.53127 21.1765 7.40524 20.5616 7.40524C20.1968 7.40524 19.8912 7.44964 19.6896 7.58536Z" fill="white"/>
</mask>
<g mask="url(#mask9_928_100887)">
<path d="M21.5582 6.19336L21.2051 8.15776H38.9239V6.19336H21.5582Z" fill="#B3A168"/>
</g>
</g>
<mask id="mask10_928_100887" style="mask-type:luminance" maskUnits="userSpaceOnUse" x="7" y="9" width="20" height="2">
<path d="M7.70117 9.62305H26.1185V10.7986H7.70117V9.62305Z" fill="white"/>
</mask>
<g mask="url(#mask10_928_100887)">
<mask id="mask11_928_100887" style="mask-type:luminance" maskUnits="userSpaceOnUse" x="7" y="5" width="24" height="26">
<path d="M14.729 5.71289C14.6142 5.7134 14.5137 5.73075 14.432 5.77463C13.8493 5.97311 12.8967 6.18435 12.8967 6.18435C12.8967 6.18435 12.5263 6.02566 11.7849 6.3961C11.0441 6.92572 10.8854 7.0844 10.8854 7.0844C10.8854 7.0844 10.6206 8.30233 9.82616 8.30233C9.35011 8.93707 8.29137 10.3137 8.02656 11.2663C7.49694 12.6424 7.70869 13.9659 8.29137 14.7599C9.13836 15.9247 9.87922 17.0365 11.6788 16.7187C13.532 16.2952 13.6907 16.2421 14.0611 16.2421C14.6433 16.2952 15.4372 16.8773 15.4372 16.8773C16.0199 16.8773 16.3372 17.0891 16.3372 17.0891C16.3372 17.0891 16.0724 18.6244 16.1786 18.8361C16.3372 19.1009 17.2898 19.405 17.3429 20.5495C17.396 21.6945 17.7133 22.3297 17.7133 22.3297C17.7133 22.3297 17.6608 22.965 17.1842 23.4941C16.7077 24.0237 17.5016 25.3998 17.8195 25.7177C18.0312 26.2999 18.243 27.1999 18.296 27.6765C18.8496 28.2056 18.8496 28.4704 19.1961 29.6878C19.1961 29.6878 19.4078 30.3231 20.413 29.8465C21.6309 29.6878 21.9483 29.8465 22.5304 28.9995C23.4836 27.9938 23.7484 27.8882 23.8014 27.3586C24.2244 26.6177 24.754 26.406 24.754 26.406C24.754 25.7702 24.8071 25.1355 24.4892 24.9768C25.4949 24.5003 26.2888 23.9706 26.6598 23.7589C26.7654 22.965 26.6067 20.8873 26.2888 20.5495C25.9715 20.0005 26.024 20.2122 26.7389 19.3652C27.6124 18.3596 28.8829 16.9835 28.8829 16.9835C28.8829 16.9835 29.2538 16.3482 29.3594 15.713C30.1003 14.9191 30.8804 13.4899 29.4053 13.9659C28.7772 14.2308 28.2476 14.6374 27.718 14.2308C27.5068 13.5424 27.0302 13.2781 26.6067 13.2781C25.7597 12.1133 25.1245 11.2663 25.1245 11.2663C25.1245 11.2663 25.5847 10.5254 24.7194 9.94325C24.1188 9.14881 24.1188 9.09575 24.1188 9.09575C24.1188 9.09575 24.6479 7.19053 22.6896 7.56096C21.3661 7.5079 19.8752 7.13747 19.5134 7.77271C19.1517 8.09059 18.6134 8.00385 18.3491 7.35891C17.8725 7.0844 17.1312 7.34105 17.1312 7.34105C17.1312 7.34105 16.5112 6.97878 16.8138 6.55529C17.1159 5.97311 17.0255 5.7083 16.2847 5.86698C15.9709 5.88943 15.6581 5.84096 15.3724 5.79249C15.1407 5.75371 14.9275 5.71391 14.7479 5.71289H14.729Z" fill="white"/>
</mask>
<g mask="url(#mask11_928_100887)">
<path d="M6.38574 10.7652H25.9945V9.70898H6.38574V10.7652Z" fill="#B3A168"/>
</g>
</g>
<mask id="mask12_928_100887" style="mask-type:luminance" maskUnits="userSpaceOnUse" x="15" y="9" width="5" height="2">
<path d="M15.2773 9.62305H19.3266V10.7986H15.2773V9.62305Z" fill="white"/>
</mask>
<g mask="url(#mask12_928_100887)">
<mask id="mask13_928_100887" style="mask-type:luminance" maskUnits="userSpaceOnUse" x="8" y="9" width="18" height="2">
<path d="M8.81836 9.70898C8.58978 10.059 8.37395 10.4238 8.2168 10.7652H25.2463C25.2372 10.5167 25.1208 10.2126 24.7198 9.94318C24.6545 9.85644 24.5963 9.77889 24.5443 9.70898H8.81836Z" fill="white"/>
</mask>
<g mask="url(#mask13_928_100887)">
<path d="M16.2456 9.55078L15.293 10.9269L19.26 10.9004V9.55078H16.2456Z" fill="#231F20"/>
</g>
</g>
<mask id="mask14_928_100887" style="mask-type:luminance" maskUnits="userSpaceOnUse" x="7" y="12" width="24" height="3">
<path d="M7.70117 12.8887H30.2984V14.0643H7.70117V12.8887Z" fill="white"/>
</mask>
<g mask="url(#mask14_928_100887)">
<mask id="mask15_928_100887" style="mask-type:luminance" maskUnits="userSpaceOnUse" x="7" y="5" width="24" height="26">
<path d="M14.729 5.71289C14.6142 5.7134 14.5137 5.73075 14.432 5.77463C13.8493 5.97311 12.8967 6.18435 12.8967 6.18435C12.8967 6.18435 12.5263 6.02566 11.7849 6.3961C11.0441 6.92572 10.8854 7.0844 10.8854 7.0844C10.8854 7.0844 10.6206 8.30233 9.82616 8.30233C9.35011 8.93707 8.29137 10.3137 8.02656 11.2663C7.49694 12.6424 7.70869 13.9659 8.29137 14.7599C9.13836 15.9247 9.87922 17.0365 11.6788 16.7187C13.532 16.2952 13.6907 16.2421 14.0611 16.2421C14.6433 16.2952 15.4372 16.8773 15.4372 16.8773C16.0199 16.8773 16.3372 17.0891 16.3372 17.0891C16.3372 17.0891 16.0724 18.6244 16.1786 18.8361C16.3372 19.1009 17.2898 19.405 17.3429 20.5495C17.396 21.6945 17.7133 22.3297 17.7133 22.3297C17.7133 22.3297 17.6608 22.965 17.1842 23.4941C16.7077 24.0237 17.5016 25.3998 17.8195 25.7177C18.0312 26.2999 18.243 27.1999 18.296 27.6765C18.8496 28.2056 18.8496 28.4704 19.1961 29.6878C19.1961 29.6878 19.4078 30.3231 20.413 29.8465C21.6309 29.6878 21.9483 29.8465 22.5304 28.9995C23.4836 27.9938 23.7484 27.8882 23.8014 27.3586C24.2244 26.6177 24.754 26.406 24.754 26.406C24.754 25.7702 24.8071 25.1355 24.4892 24.9768C25.4949 24.5003 26.2888 23.9706 26.6598 23.7589C26.7654 22.965 26.6067 20.8873 26.2888 20.5495C25.9715 20.0005 26.024 20.2122 26.7389 19.3652C27.6124 18.3596 28.8829 16.9835 28.8829 16.9835C28.8829 16.9835 29.2538 16.3482 29.3594 15.713C30.1003 14.9191 30.8804 13.4899 29.4053 13.9659C28.7772 14.2308 28.2476 14.6374 27.718 14.2308C27.5068 13.5424 27.0302 13.2781 26.6067 13.2781C25.7597 12.1133 25.1245 11.2663 25.1245 11.2663C25.1245 11.2663 25.5847 10.5254 24.7194 9.94325C24.1188 9.14881 24.1188 9.09575 24.1188 9.09575C24.1188 9.09575 24.6479 7.19053 22.6896 7.56096C21.3661 7.5079 19.8752 7.13747 19.5134 7.77271C19.1517 8.09059 18.6134 8.00385 18.3491 7.35891C17.8725 7.0844 17.1312 7.34105 17.1312 7.34105C17.1312 7.34105 16.5112 6.97878 16.8138 6.55529C17.1159 5.97311 17.0255 5.7083 16.2847 5.86698C15.9709 5.88943 15.6581 5.84096 15.3724 5.79249C15.1407 5.75371 14.9275 5.71391 14.7479 5.71289H14.729Z" fill="white"/>
</mask>
<g mask="url(#mask15_928_100887)">
<path d="M6.45068 13.9977H31.224V12.9043H6.45068V13.9977Z" fill="#319044"/>
</g>
</g>
<mask id="mask16_928_100887" style="mask-type:luminance" maskUnits="userSpaceOnUse" x="12" y="12" width="7" height="3">
<path d="M12.665 12.8887H18.4123V14.0643H12.665V12.8887Z" fill="white"/>
</mask>
<g mask="url(#mask16_928_100887)">
<mask id="mask17_928_100887" style="mask-type:luminance" maskUnits="userSpaceOnUse" x="7" y="12" width="24" height="2">
<path d="M7.72412 12.9043C7.72973 13.2987 7.79351 13.6681 7.90423 13.9977H27.6304C27.3921 13.4819 26.9793 13.2783 26.6073 13.2783C26.514 13.1492 26.4226 13.0247 26.3349 12.9043H7.72412ZM29.406 13.9661C29.3815 13.9768 29.357 13.987 29.3325 13.9977H30.1968C30.1458 13.9176 30.0483 13.8712 29.8932 13.8712C29.7693 13.8712 29.609 13.9003 29.406 13.9661Z" fill="white"/>
</mask>
<g mask="url(#mask17_928_100887)">
<path d="M14.031 17.0308C14.031 17.0308 13.9646 13.4066 18.3159 11.9805L17.2531 11.084C17.2531 11.084 13.1222 12.2147 12.736 17.2298C12.3492 22.2122 14.031 17.0308 14.031 17.0308Z" fill="#00512C"/>
</g>
</g>
<mask id="mask18_928_100887" style="mask-type:luminance" maskUnits="userSpaceOnUse" x="7" y="12" width="8" height="3">
<path d="M7.70117 12.8887H14.7546V14.0643H7.70117V12.8887Z" fill="white"/>
</mask>
<g mask="url(#mask18_928_100887)">
<mask id="mask19_928_100887" style="mask-type:luminance" maskUnits="userSpaceOnUse" x="7" y="12" width="24" height="2">
<path d="M7.72363 12.9043C7.72925 13.2987 7.79302 13.6681 7.90375 13.9977H27.6299C27.3916 13.4819 26.9788 13.2783 26.6068 13.2783C26.5135 13.1492 26.4221 13.0247 26.3344 12.9043H7.72363ZM29.4055 13.9661C29.381 13.9768 29.3565 13.987 29.332 13.9977H30.1963C30.1453 13.9176 30.0479 13.8712 29.8928 13.8712C29.7688 13.8712 29.6086 13.9003 29.4055 13.9661Z" fill="white"/>
</mask>
<g mask="url(#mask19_928_100887)">
<path d="M6.37305 12.7148L6.40315 17.5059L12.6382 16.709L14.6312 12.723L6.37305 12.7148Z" fill="#B3A168"/>
</g>
</g>
<mask id="mask20_928_100887" style="mask-type:luminance" maskUnits="userSpaceOnUse" x="21" y="12" width="10" height="3">
<path d="M21.1548 12.8887H30.2982V14.0643H21.1548V12.8887Z" fill="white"/>
</mask>
<g mask="url(#mask20_928_100887)">
<mask id="mask21_928_100887" style="mask-type:luminance" maskUnits="userSpaceOnUse" x="7" y="12" width="24" height="2">
<path d="M7.72363 12.9043C7.72925 13.2987 7.79302 13.6681 7.90375 13.9977H27.6299C27.3916 13.4819 26.9788 13.2783 26.6068 13.2783C26.5135 13.1492 26.4221 13.0247 26.3344 12.9043H7.72363ZM29.4055 13.9661C29.381 13.9768 29.3565 13.987 29.332 13.9977H30.1963C30.1453 13.9176 30.0479 13.8712 29.8928 13.8712C29.7688 13.8712 29.6086 13.9003 29.4055 13.9661Z" fill="white"/>
</mask>
<g mask="url(#mask21_928_100887)">
<path d="M21.1626 14.419H45.9359V12.7148H21.1626V14.419Z" fill="#B3A168"/>
</g>
</g>
<mask id="mask22_928_100887" style="mask-type:luminance" maskUnits="userSpaceOnUse" x="21" y="12" width="3" height="3">
<path d="M21.1548 12.8887H23.7672V14.0643H21.1548V12.8887Z" fill="white"/>
</mask>
<g mask="url(#mask22_928_100887)">
<mask id="mask23_928_100887" style="mask-type:luminance" maskUnits="userSpaceOnUse" x="21" y="12" width="10" height="2">
<path d="M21.1626 12.9043V13.9977H27.6298C27.3915 13.4819 26.9787 13.2783 26.6068 13.2783C26.5134 13.1492 26.4221 13.0247 26.3343 12.9043H21.1626ZM29.4054 13.9661C29.3809 13.9768 29.3564 13.987 29.3319 13.9977H30.1963C30.1453 13.9176 30.0478 13.8712 29.8927 13.8712C29.7687 13.8712 29.6085 13.9003 29.4054 13.9661Z" fill="white"/>
</mask>
<g mask="url(#mask23_928_100887)">
<path d="M18.8466 10.3867C18.8466 10.3867 23.7627 12.5792 23.7627 16.8305C23.7627 21.0818 16.1235 23.3406 16.1235 23.3406L18.8466 10.3867Z" fill="#7D7246"/>
</g>
</g>
<mask id="mask24_928_100887" style="mask-type:luminance" maskUnits="userSpaceOnUse" x="7" y="11" width="24" height="2">
<path d="M7.70117 11.3203H30.2984V12.4959H7.70117V11.3203Z" fill="white"/>
</mask>
<g mask="url(#mask24_928_100887)">
<mask id="mask25_928_100887" style="mask-type:luminance" maskUnits="userSpaceOnUse" x="7" y="5" width="24" height="26">
<path d="M14.729 5.71289C14.6142 5.7134 14.5137 5.73075 14.432 5.77463C13.8493 5.97311 12.8967 6.18435 12.8967 6.18435C12.8967 6.18435 12.5263 6.02566 11.7849 6.3961C11.0441 6.92572 10.8854 7.0844 10.8854 7.0844C10.8854 7.0844 10.6206 8.30233 9.82616 8.30233C9.35011 8.93707 8.29137 10.3137 8.02656 11.2663C7.49694 12.6424 7.70869 13.9659 8.29137 14.7599C9.13836 15.9247 9.87922 17.0365 11.6788 16.7187C13.532 16.2952 13.6907 16.2421 14.0611 16.2421C14.6433 16.2952 15.4372 16.8773 15.4372 16.8773C16.0199 16.8773 16.3372 17.0891 16.3372 17.0891C16.3372 17.0891 16.0724 18.6244 16.1786 18.8361C16.3372 19.1009 17.2898 19.405 17.3429 20.5495C17.396 21.6945 17.7133 22.3297 17.7133 22.3297C17.7133 22.3297 17.6608 22.965 17.1842 23.4941C16.7077 24.0237 17.5016 25.3998 17.8195 25.7177C18.0312 26.2999 18.243 27.1999 18.296 27.6765C18.8496 28.2056 18.8496 28.4704 19.1961 29.6878C19.1961 29.6878 19.4078 30.3231 20.413 29.8465C21.6309 29.6878 21.9483 29.8465 22.5304 28.9995C23.4836 27.9938 23.7484 27.8882 23.8014 27.3586C24.2244 26.6177 24.754 26.406 24.754 26.406C24.754 25.7702 24.8071 25.1355 24.4892 24.9768C25.4949 24.5003 26.2888 23.9706 26.6598 23.7589C26.7654 22.965 26.6067 20.8873 26.2888 20.5495C25.9715 20.0005 26.024 20.2122 26.7389 19.3652C27.6124 18.3596 28.8829 16.9835 28.8829 16.9835C28.8829 16.9835 29.2538 16.3482 29.3594 15.713C30.1003 14.9191 30.8804 13.4899 29.4053 13.9659C28.7772 14.2308 28.2476 14.6374 27.718 14.2308C27.5068 13.5424 27.0302 13.2781 26.6067 13.2781C25.7597 12.1133 25.1245 11.2663 25.1245 11.2663C25.1245 11.2663 25.5847 10.5254 24.7194 9.94325C24.1188 9.14881 24.1188 9.09575 24.1188 9.09575C24.1188 9.09575 24.6479 7.19053 22.6896 7.56096C21.3661 7.5079 19.8752 7.13747 19.5134 7.77271C19.1517 8.09059 18.6134 8.00385 18.3491 7.35891C17.8725 7.0844 17.1312 7.34105 17.1312 7.34105C17.1312 7.34105 16.5112 6.97878 16.8138 6.55529C17.1159 5.97311 17.0255 5.7083 16.2847 5.86698C15.9709 5.88943 15.6581 5.84096 15.3724 5.79249C15.1407 5.75371 14.9275 5.71391 14.7479 5.71289H14.729Z" fill="white"/>
</mask>
<g mask="url(#mask25_928_100887)">
<path d="M6.37305 11.3281L6.4506 12.3812H31.2239L31.1464 11.3281H6.37305Z" fill="#319044"/>
</g>
</g>
<mask id="mask26_928_100887" style="mask-type:luminance" maskUnits="userSpaceOnUse" x="7" y="11" width="9" height="2">
<path d="M7.70117 11.3203H15.669V12.4959H7.70117V11.3203Z" fill="white"/>
</mask>
<g mask="url(#mask26_928_100887)">
<mask id="mask27_928_100887" style="mask-type:luminance" maskUnits="userSpaceOnUse" x="7" y="11" width="19" height="2">
<path d="M8.00356 11.3281C7.87141 11.6863 7.78927 12.0404 7.75049 12.3818H25.9515C25.5627 11.8537 25.278 11.4715 25.1714 11.3281H8.00356Z" fill="white"/>
</mask>
<g mask="url(#mask27_928_100887)">
<path d="M5.8418 11.1426L5.87241 12.7371H15.5617L15.5311 11.1426H5.8418Z" fill="#B3A168"/>
</g>
</g>
<mask id="mask28_928_100887" style="mask-type:luminance" maskUnits="userSpaceOnUse" x="18" y="11" width="8" height="2">
<path d="M18.6733 11.3203H25.988V12.4959H18.6733V11.3203Z" fill="white"/>
</mask>
<g mask="url(#mask28_928_100887)">
<mask id="mask29_928_100887" style="mask-type:luminance" maskUnits="userSpaceOnUse" x="7" y="11" width="19" height="2">
<path d="M8.00356 11.3281C7.87141 11.6863 7.78927 12.0404 7.75049 12.3818H25.9515C25.5627 11.8537 25.278 11.4715 25.1714 11.3281H8.00356Z" fill="white"/>
</mask>
<g mask="url(#mask29_928_100887)">
<path d="M18.7383 11.0463L18.8189 12.7434L42.6192 12.6628L27.9914 10.7637L18.7383 11.0463Z" fill="#B3A168"/>
</g>
</g>
<mask id="mask30_928_100887" style="mask-type:luminance" maskUnits="userSpaceOnUse" x="18" y="11" width="6" height="2">
<path d="M18.6733 11.3203H23.7675V12.4959H18.6733V11.3203Z" fill="white"/>
</mask>
<g mask="url(#mask30_928_100887)">
<mask id="mask31_928_100887" style="mask-type:luminance" maskUnits="userSpaceOnUse" x="18" y="11" width="8" height="2">
<path d="M18.7515 11.3281L18.8015 12.3818H25.9514C25.5626 11.8537 25.2779 11.4715 25.1712 11.3281H18.7515Z" fill="white"/>
</mask>
<g mask="url(#mask31_928_100887)">
<path d="M18.8471 10.3867C18.8471 10.3867 23.7632 12.5792 23.7632 16.8305C23.7632 21.0818 16.124 23.3406 16.124 23.3406L18.8471 10.3867Z" fill="#7D7246"/>
</g>
</g>
<mask id="mask32_928_100887" style="mask-type:luminance" maskUnits="userSpaceOnUse" x="12" y="11" width="7" height="2">
<path d="M12.665 11.3203H18.4123V12.4959H12.665V11.3203Z" fill="white"/>
</mask>
<g mask="url(#mask32_928_100887)">
<mask id="mask33_928_100887" style="mask-type:luminance" maskUnits="userSpaceOnUse" x="7" y="11" width="19" height="2">
<path d="M8.00356 11.3281C7.87141 11.6863 7.78927 12.0404 7.75049 12.3818H25.9515C25.5627 11.8537 25.278 11.4715 25.1714 11.3281H8.00356Z" fill="white"/>
</mask>
<g mask="url(#mask33_928_100887)">
<path d="M14.031 17.0308C14.031 17.0308 13.9646 13.4066 18.3159 11.9805L17.2531 11.084C17.2531 11.084 13.1222 12.2147 12.736 17.2298C12.3492 22.2122 14.031 17.0308 14.031 17.0308Z" fill="#00512C"/>
</g>
</g>
<mask id="mask34_928_100887" style="mask-type:luminance" maskUnits="userSpaceOnUse" x="7" y="14" width="24" height="2">
<path d="M7.70117 14.4551H30.2984V15.7613H7.70117V14.4551Z" fill="white"/>
</mask>
<g mask="url(#mask34_928_100887)">
<mask id="mask35_928_100887" style="mask-type:luminance" maskUnits="userSpaceOnUse" x="7" y="5" width="24" height="26">
<path d="M14.729 5.71289C14.6142 5.7134 14.5137 5.73075 14.432 5.77463C13.8493 5.97311 12.8967 6.18435 12.8967 6.18435C12.8967 6.18435 12.5263 6.02566 11.7849 6.3961C11.0441 6.92572 10.8854 7.0844 10.8854 7.0844C10.8854 7.0844 10.6206 8.30233 9.82616 8.30233C9.35011 8.93707 8.29137 10.3137 8.02656 11.2663C7.49694 12.6424 7.70869 13.9659 8.29137 14.7599C9.13836 15.9247 9.87922 17.0365 11.6788 16.7187C13.532 16.2952 13.6907 16.2421 14.0611 16.2421C14.6433 16.2952 15.4372 16.8773 15.4372 16.8773C16.0199 16.8773 16.3372 17.0891 16.3372 17.0891C16.3372 17.0891 16.0724 18.6244 16.1786 18.8361C16.3372 19.1009 17.2898 19.405 17.3429 20.5495C17.396 21.6945 17.7133 22.3297 17.7133 22.3297C17.7133 22.3297 17.6608 22.965 17.1842 23.4941C16.7077 24.0237 17.5016 25.3998 17.8195 25.7177C18.0312 26.2999 18.243 27.1999 18.296 27.6765C18.8496 28.2056 18.8496 28.4704 19.1961 29.6878C19.1961 29.6878 19.4078 30.3231 20.413 29.8465C21.6309 29.6878 21.9483 29.8465 22.5304 28.9995C23.4836 27.9938 23.7484 27.8882 23.8014 27.3586C24.2244 26.6177 24.754 26.406 24.754 26.406C24.754 25.7702 24.8071 25.1355 24.4892 24.9768C25.4949 24.5003 26.2888 23.9706 26.6598 23.7589C26.7654 22.965 26.6067 20.8873 26.2888 20.5495C25.9715 20.0005 26.024 20.2122 26.7389 19.3652C27.6124 18.3596 28.8829 16.9835 28.8829 16.9835C28.8829 16.9835 29.2538 16.3482 29.3594 15.713C30.1003 14.9191 30.8804 13.4899 29.4053 13.9659C28.7772 14.2308 28.2476 14.6374 27.718 14.2308C27.5068 13.5424 27.0302 13.2781 26.6067 13.2781C25.7597 12.1133 25.1245 11.2663 25.1245 11.2663C25.1245 11.2663 25.5847 10.5254 24.7194 9.94325C24.1188 9.14881 24.1188 9.09575 24.1188 9.09575C24.1188 9.09575 24.6479 7.19053 22.6896 7.56096C21.3661 7.5079 19.8752 7.13747 19.5134 7.77271C19.1517 8.09059 18.6134 8.00385 18.3491 7.35891C17.8725 7.0844 17.1312 7.34105 17.1312 7.34105C17.1312 7.34105 16.5112 6.97878 16.8138 6.55529C17.1159 5.97311 17.0255 5.7083 16.2847 5.86698C15.9709 5.88943 15.6581 5.84096 15.3724 5.79249C15.1407 5.75371 14.9275 5.71391 14.7479 5.71289H14.729Z" fill="white"/>
</mask>
<g mask="url(#mask35_928_100887)">
<path d="M6.45068 15.6516H31.224V14.5684H6.45068V15.6516Z" fill="#319044"/>
</g>
</g>
<mask id="mask36_928_100887" style="mask-type:luminance" maskUnits="userSpaceOnUse" x="8" y="14" width="6" height="2">
<path d="M8.09326 14.4551H13.1874V15.7613H8.09326V14.4551Z" fill="white"/>
</mask>
<g mask="url(#mask36_928_100887)">
<mask id="mask37_928_100887" style="mask-type:luminance" maskUnits="userSpaceOnUse" x="8" y="14" width="23" height="2">
<path d="M8.16504 14.5684C8.20535 14.6347 8.24719 14.6985 8.29209 14.7592C8.5171 15.0689 8.73497 15.375 8.96713 15.6511H29.4157C29.7076 15.3271 29.9964 14.9148 30.1428 14.5684H8.16504Z" fill="white"/>
</mask>
<g mask="url(#mask37_928_100887)">
<path d="M3.37207 14.3164L3.40268 15.9109H13.092L13.0614 14.3164H3.37207Z" fill="#B3A168"/>
</g>
</g>
<mask id="mask38_928_100887" style="mask-type:luminance" maskUnits="userSpaceOnUse" x="12" y="14" width="7" height="2">
<path d="M12.665 14.4551H18.4123V15.7613H12.665V14.4551Z" fill="white"/>
</mask>
<g mask="url(#mask38_928_100887)">
<mask id="mask39_928_100887" style="mask-type:luminance" maskUnits="userSpaceOnUse" x="8" y="14" width="23" height="2">
<path d="M8.16455 14.5684C8.20486 14.6347 8.2467 14.6985 8.2916 14.7592C8.51661 15.0689 8.73448 15.375 8.96664 15.6511H29.4152C29.7071 15.3271 29.9959 14.9148 30.1423 14.5684H8.16455Z" fill="white"/>
</mask>
<g mask="url(#mask39_928_100887)">
<path d="M14.0305 17.0288C14.0305 17.0288 13.9641 13.4046 18.3154 11.9785L17.2526 11.082C17.2526 11.082 13.1218 12.2127 12.7355 17.2278C12.3487 22.2103 14.0305 17.0288 14.0305 17.0288Z" fill="#00512C"/>
</g>
</g>
<mask id="mask40_928_100887" style="mask-type:luminance" maskUnits="userSpaceOnUse" x="21" y="14" width="10" height="2">
<path d="M21.9385 14.4551H30.1675V15.7613H21.9385V14.4551Z" fill="white"/>
</mask>
<g mask="url(#mask40_928_100887)">
<mask id="mask41_928_100887" style="mask-type:luminance" maskUnits="userSpaceOnUse" x="8" y="14" width="23" height="2">
<path d="M8.16406 14.5684C8.20437 14.6347 8.24621 14.6985 8.29111 14.7592C8.51612 15.0689 8.73399 15.375 8.96615 15.6511H29.4148C29.7066 15.3271 29.9954 14.9148 30.1418 14.5684H8.16406Z" fill="white"/>
</mask>
<g mask="url(#mask41_928_100887)">
<path d="M21.9561 15.8934H42.6271V14.3984H21.9561V15.8934Z" fill="#B3A168"/>
</g>
</g>
<mask id="mask42_928_100887" style="mask-type:luminance" maskUnits="userSpaceOnUse" x="21" y="14" width="3" height="2">
<path d="M21.9385 14.4551H23.7672V15.7613H21.9385V14.4551Z" fill="white"/>
</mask>
<g mask="url(#mask42_928_100887)">
<mask id="mask43_928_100887" style="mask-type:luminance" maskUnits="userSpaceOnUse" x="21" y="14" width="10" height="2">
<path d="M21.9565 14.5684V15.6511H29.4151C29.707 15.3271 29.9958 14.9143 30.1422 14.5684H21.9565Z" fill="white"/>
</mask>
<g mask="url(#mask43_928_100887)">
<path d="M18.8466 10.3867C18.8466 10.3867 23.7627 12.5792 23.7627 16.8305C23.7627 21.0818 16.1235 23.3406 16.1235 23.3406L18.8466 10.3867Z" fill="#7D7246"/>
</g>
</g>
<mask id="mask44_928_100887" style="mask-type:luminance" maskUnits="userSpaceOnUse" x="7" y="17" width="24" height="2">
<path d="M7.70117 17.7207H30.2984V18.8963H7.70117V17.7207Z" fill="white"/>
</mask>
<g mask="url(#mask44_928_100887)">
<mask id="mask45_928_100887" style="mask-type:luminance" maskUnits="userSpaceOnUse" x="7" y="5" width="24" height="26">
<path d="M14.729 5.71289C14.6142 5.7134 14.5137 5.73075 14.432 5.77463C13.8493 5.97311 12.8967 6.18435 12.8967 6.18435C12.8967 6.18435 12.5263 6.02566 11.7849 6.3961C11.0441 6.92572 10.8854 7.0844 10.8854 7.0844C10.8854 7.0844 10.6206 8.30233 9.82616 8.30233C9.35011 8.93707 8.29137 10.3137 8.02656 11.2663C7.49694 12.6424 7.70869 13.9659 8.29137 14.7599C9.13836 15.9247 9.87922 17.0365 11.6788 16.7187C13.532 16.2952 13.6907 16.2421 14.0611 16.2421C14.6433 16.2952 15.4372 16.8773 15.4372 16.8773C16.0199 16.8773 16.3372 17.0891 16.3372 17.0891C16.3372 17.0891 16.0724 18.6244 16.1786 18.8361C16.3372 19.1009 17.2898 19.405 17.3429 20.5495C17.396 21.6945 17.7133 22.3297 17.7133 22.3297C17.7133 22.3297 17.6608 22.965 17.1842 23.4941C16.7077 24.0237 17.5016 25.3998 17.8195 25.7177C18.0312 26.2999 18.243 27.1999 18.296 27.6765C18.8496 28.2056 18.8496 28.4704 19.1961 29.6878C19.1961 29.6878 19.4078 30.3231 20.413 29.8465C21.6309 29.6878 21.9483 29.8465 22.5304 28.9995C23.4836 27.9938 23.7484 27.8882 23.8014 27.3586C24.2244 26.6177 24.754 26.406 24.754 26.406C24.754 25.7702 24.8071 25.1355 24.4892 24.9768C25.4949 24.5003 26.2888 23.9706 26.6598 23.7589C26.7654 22.965 26.6067 20.8873 26.2888 20.5495C25.9715 20.0005 26.024 20.2122 26.7389 19.3652C27.6124 18.3596 28.8829 16.9835 28.8829 16.9835C28.8829 16.9835 29.2538 16.3482 29.3594 15.713C30.1003 14.9191 30.8804 13.4899 29.4053 13.9659C28.7772 14.2308 28.2476 14.6374 27.718 14.2308C27.5068 13.5424 27.0302 13.2781 26.6067 13.2781C25.7597 12.1133 25.1245 11.2663 25.1245 11.2663C25.1245 11.2663 25.5847 10.5254 24.7194 9.94325C24.1188 9.14881 24.1188 9.09575 24.1188 9.09575C24.1188 9.09575 24.6479 7.19053 22.6896 7.56096C21.3661 7.5079 19.8752 7.13747 19.5134 7.77271C19.1517 8.09059 18.6134 8.00385 18.3491 7.35891C17.8725 7.0844 17.1312 7.34105 17.1312 7.34105C17.1312 7.34105 16.5112 6.97878 16.8138 6.55529C17.1159 5.97311 17.0255 5.7083 16.2847 5.86698C15.9709 5.88943 15.6581 5.84096 15.3724 5.79249C15.1407 5.75371 14.9275 5.71391 14.7479 5.71289H14.729Z" fill="white"/>
</mask>
<g mask="url(#mask45_928_100887)">
<path d="M6.4506 17.7539L6.37305 18.8473H31.1464L31.2239 17.7539H6.4506Z" fill="#319044"/>
</g>
</g>
<mask id="mask46_928_100887" style="mask-type:luminance" maskUnits="userSpaceOnUse" x="21" y="17" width="8" height="2">
<path d="M21.9385 17.7207H28.2082V18.8963H21.9385V17.7207Z" fill="white"/>
</mask>
<g mask="url(#mask46_928_100887)">
<mask id="mask47_928_100887" style="mask-type:luminance" maskUnits="userSpaceOnUse" x="16" y="17" width="13" height="2">
<path d="M16.2355 17.752C16.1748 18.1959 16.1197 18.7178 16.1783 18.8352C16.1804 18.8388 16.1829 18.8423 16.1855 18.8459H27.1943C27.5315 18.4663 27.8836 18.0765 28.1785 17.752H16.2355Z" fill="white"/>
</mask>
<g mask="url(#mask47_928_100887)">
<path d="M22.0278 18.9639H42.6275V17.5898H22.0278V18.9639Z" fill="#B3A168"/>
</g>
</g>
<mask id="mask48_928_100887" style="mask-type:luminance" maskUnits="userSpaceOnUse" x="21" y="17" width="3" height="2">
<path d="M21.9385 17.7207H23.7672V18.8963H21.9385V17.7207Z" fill="white"/>
</mask>
<g mask="url(#mask48_928_100887)">
<mask id="mask49_928_100887" style="mask-type:luminance" maskUnits="userSpaceOnUse" x="22" y="17" width="7" height="2">
<path d="M22.0278 17.752V18.8459H27.1945C27.5317 18.4663 27.8838 18.0765 28.1787 17.752H22.0278Z" fill="white"/>
</mask>
<g mask="url(#mask49_928_100887)">
<path d="M18.8462 10.3867C18.8462 10.3867 23.7623 12.5792 23.7623 16.8305C23.7623 21.0818 16.123 23.3406 16.123 23.3406L18.8462 10.3867Z" fill="#7D7246"/>
</g>
</g>
<mask id="mask50_928_100887" style="mask-type:luminance" maskUnits="userSpaceOnUse" x="7" y="16" width="24" height="2">
<path d="M7.70117 16.1543H30.2984V17.3299H7.70117V16.1543Z" fill="white"/>
</mask>
<g mask="url(#mask50_928_100887)">
<mask id="mask51_928_100887" style="mask-type:luminance" maskUnits="userSpaceOnUse" x="7" y="5" width="24" height="26">
<path d="M14.729 5.71289C14.6142 5.7134 14.5137 5.73075 14.432 5.77463C13.8493 5.97311 12.8967 6.18435 12.8967 6.18435C12.8967 6.18435 12.5263 6.02566 11.7849 6.3961C11.0441 6.92572 10.8854 7.0844 10.8854 7.0844C10.8854 7.0844 10.6206 8.30233 9.82616 8.30233C9.35011 8.93707 8.29137 10.3137 8.02656 11.2663C7.49694 12.6424 7.70869 13.9659 8.29137 14.7599C9.13836 15.9247 9.87922 17.0365 11.6788 16.7187C13.532 16.2952 13.6907 16.2421 14.0611 16.2421C14.6433 16.2952 15.4372 16.8773 15.4372 16.8773C16.0199 16.8773 16.3372 17.0891 16.3372 17.0891C16.3372 17.0891 16.0724 18.6244 16.1786 18.8361C16.3372 19.1009 17.2898 19.405 17.3429 20.5495C17.396 21.6945 17.7133 22.3297 17.7133 22.3297C17.7133 22.3297 17.6608 22.965 17.1842 23.4941C16.7077 24.0237 17.5016 25.3998 17.8195 25.7177C18.0312 26.2999 18.243 27.1999 18.296 27.6765C18.8496 28.2056 18.8496 28.4704 19.1961 29.6878C19.1961 29.6878 19.4078 30.3231 20.413 29.8465C21.6309 29.6878 21.9483 29.8465 22.5304 28.9995C23.4836 27.9938 23.7484 27.8882 23.8014 27.3586C24.2244 26.6177 24.754 26.406 24.754 26.406C24.754 25.7702 24.8071 25.1355 24.4892 24.9768C25.4949 24.5003 26.2888 23.9706 26.6598 23.7589C26.7654 22.965 26.6067 20.8873 26.2888 20.5495C25.9715 20.0005 26.024 20.2122 26.7389 19.3652C27.6124 18.3596 28.8829 16.9835 28.8829 16.9835C28.8829 16.9835 29.2538 16.3482 29.3594 15.713C30.1003 14.9191 30.8804 13.4899 29.4053 13.9659C28.7772 14.2308 28.2476 14.6374 27.718 14.2308C27.5068 13.5424 27.0302 13.2781 26.6067 13.2781C25.7597 12.1133 25.1245 11.2663 25.1245 11.2663C25.1245 11.2663 25.5847 10.5254 24.7194 9.94325C24.1188 9.14881 24.1188 9.09575 24.1188 9.09575C24.1188 9.09575 24.6479 7.19053 22.6896 7.56096C21.3661 7.5079 19.8752 7.13747 19.5134 7.77271C19.1517 8.09059 18.6134 8.00385 18.3491 7.35891C17.8725 7.0844 17.1312 7.34105 17.1312 7.34105C17.1312 7.34105 16.5112 6.97878 16.8138 6.55529C17.1159 5.97311 17.0255 5.7083 16.2847 5.86698C15.9709 5.88943 15.6581 5.84096 15.3724 5.79249C15.1407 5.75371 14.9275 5.71391 14.7479 5.71289H14.729Z" fill="white"/>
</mask>
<g mask="url(#mask51_928_100887)">
<path d="M6.45068 17.2686H31.224V16.1777H6.45068V17.2686Z" fill="#319044"/>
</g>
</g>
<mask id="mask52_928_100887" style="mask-type:luminance" maskUnits="userSpaceOnUse" x="9" y="16" width="4" height="2">
<path d="M9.39941 16.1543H12.6649V17.3299H9.39941V16.1543Z" fill="white"/>
</mask>
<g mask="url(#mask52_928_100887)">
<mask id="mask53_928_100887" style="mask-type:luminance" maskUnits="userSpaceOnUse" x="9" y="16" width="21" height="2">
<path d="M9.47949 16.1777C10.0224 16.6369 10.6913 16.8936 11.6791 16.7191C13.5323 16.2956 13.691 16.2425 14.0614 16.2425C14.6436 16.2956 15.4375 16.8778 15.4375 16.8778C16.0202 16.8778 16.3375 17.0895 16.3375 17.0895C16.3375 17.0895 16.3258 17.1584 16.3079 17.2686H28.6214C28.7836 17.0916 28.8831 16.9839 28.8831 16.9839C28.8831 16.9839 29.0923 16.6252 29.2408 16.1777H9.47949Z" fill="white"/>
</mask>
<g mask="url(#mask53_928_100887)">
<path d="M2.90674 15.8457L2.93684 17.4402H12.6262L12.5961 15.8457H2.90674Z" fill="#B3A168"/>
</g>
</g>
<mask id="mask54_928_100887" style="mask-type:luminance" maskUnits="userSpaceOnUse" x="22" y="16" width="8" height="2">
<path d="M22.4609 16.1543H29.2532V17.3299H22.4609V16.1543Z" fill="white"/>
</mask>
<g mask="url(#mask54_928_100887)">
<mask id="mask55_928_100887" style="mask-type:luminance" maskUnits="userSpaceOnUse" x="9" y="16" width="21" height="2">
<path d="M9.479 16.1777C10.0219 16.6369 10.6908 16.8936 11.6786 16.7191C13.5318 16.2956 13.6905 16.2425 14.0609 16.2425C14.6431 16.2956 15.437 16.8778 15.437 16.8778C16.0197 16.8778 16.337 17.0895 16.337 17.0895C16.337 17.0895 16.3253 17.1584 16.3075 17.2686H28.6209C28.7832 17.0916 28.8827 16.9839 28.8827 16.9839C28.8827 16.9839 29.0919 16.6252 29.2403 16.1777H9.479Z" fill="white"/>
</mask>
<g mask="url(#mask55_928_100887)">
<path d="M22.4854 17.3977H42.6273V16.0977H22.4854V17.3977Z" fill="#B3A168"/>
</g>
</g>
<mask id="mask56_928_100887" style="mask-type:luminance" maskUnits="userSpaceOnUse" x="22" y="16" width="2" height="2">
<path d="M22.4609 16.1543H23.7671V17.3299H22.4609V16.1543Z" fill="white"/>
</mask>
<g mask="url(#mask56_928_100887)">
<mask id="mask57_928_100887" style="mask-type:luminance" maskUnits="userSpaceOnUse" x="22" y="16" width="8" height="2">
<path d="M22.4858 16.1777V17.2686H28.6214C28.7836 17.0916 28.8831 16.9839 28.8831 16.9839C28.8831 16.9839 29.0923 16.6252 29.2408 16.1777H22.4858Z" fill="white"/>
</mask>
<g mask="url(#mask57_928_100887)">
<path d="M18.8466 10.3867C18.8466 10.3867 23.7627 12.5792 23.7627 16.8305C23.7627 21.0818 16.1235 23.3406 16.1235 23.3406L18.8466 10.3867Z" fill="#7D7246"/>
</g>
</g>
<mask id="mask58_928_100887" style="mask-type:luminance" maskUnits="userSpaceOnUse" x="12" y="16" width="7" height="2">
<path d="M12.665 16.1543H18.4123V17.3299H12.665V16.1543Z" fill="white"/>
</mask>
<g mask="url(#mask58_928_100887)">
<mask id="mask59_928_100887" style="mask-type:luminance" maskUnits="userSpaceOnUse" x="9" y="16" width="21" height="2">
<path d="M9.47949 16.1777C10.0224 16.6369 10.6913 16.8936 11.6791 16.7191C13.5323 16.2956 13.691 16.2425 14.0614 16.2425C14.6436 16.2956 15.4375 16.8778 15.4375 16.8778C16.0202 16.8778 16.3375 17.0895 16.3375 17.0895C16.3375 17.0895 16.3258 17.1584 16.3079 17.2686H28.6214C28.7836 17.0916 28.8831 16.9839 28.8831 16.9839C28.8831 16.9839 29.0923 16.6252 29.2408 16.1777H9.47949Z" fill="white"/>
</mask>
<g mask="url(#mask59_928_100887)">
<path d="M14.0305 17.0308C14.0305 17.0308 13.9641 13.4066 18.3154 11.9805L17.2526 11.084C17.2526 11.084 13.1218 12.2147 12.7355 17.2298C12.3487 22.2122 14.0305 17.0308 14.0305 17.0308Z" fill="#00512C"/>
</g>
</g>
<mask id="mask60_928_100887" style="mask-type:luminance" maskUnits="userSpaceOnUse" x="7" y="19" width="24" height="2">
<path d="M7.70117 19.1582H30.2984V20.3338H7.70117V19.1582Z" fill="white"/>
</mask>
<g mask="url(#mask60_928_100887)">
<mask id="mask61_928_100887" style="mask-type:luminance" maskUnits="userSpaceOnUse" x="7" y="5" width="24" height="26">
<path d="M14.729 5.71289C14.6142 5.7134 14.5137 5.73075 14.432 5.77463C13.8493 5.97311 12.8967 6.18435 12.8967 6.18435C12.8967 6.18435 12.5263 6.02566 11.7849 6.3961C11.0441 6.92572 10.8854 7.0844 10.8854 7.0844C10.8854 7.0844 10.6206 8.30233 9.82616 8.30233C9.35011 8.93707 8.29137 10.3137 8.02656 11.2663C7.49694 12.6424 7.70869 13.9659 8.29137 14.7599C9.13836 15.9247 9.87922 17.0365 11.6788 16.7187C13.532 16.2952 13.6907 16.2421 14.0611 16.2421C14.6433 16.2952 15.4372 16.8773 15.4372 16.8773C16.0199 16.8773 16.3372 17.0891 16.3372 17.0891C16.3372 17.0891 16.0724 18.6244 16.1786 18.8361C16.3372 19.1009 17.2898 19.405 17.3429 20.5495C17.396 21.6945 17.7133 22.3297 17.7133 22.3297C17.7133 22.3297 17.6608 22.965 17.1842 23.4941C16.7077 24.0237 17.5016 25.3998 17.8195 25.7177C18.0312 26.2999 18.243 27.1999 18.296 27.6765C18.8496 28.2056 18.8496 28.4704 19.1961 29.6878C19.1961 29.6878 19.4078 30.3231 20.413 29.8465C21.6309 29.6878 21.9483 29.8465 22.5304 28.9995C23.4836 27.9938 23.7484 27.8882 23.8014 27.3586C24.2244 26.6177 24.754 26.406 24.754 26.406C24.754 25.7702 24.8071 25.1355 24.4892 24.9768C25.4949 24.5003 26.2888 23.9706 26.6598 23.7589C26.7654 22.965 26.6067 20.8873 26.2888 20.5495C25.9715 20.0005 26.024 20.2122 26.7389 19.3652C27.6124 18.3596 28.8829 16.9835 28.8829 16.9835C28.8829 16.9835 29.2538 16.3482 29.3594 15.713C30.1003 14.9191 30.8804 13.4899 29.4053 13.9659C28.7772 14.2308 28.2476 14.6374 27.718 14.2308C27.5068 13.5424 27.0302 13.2781 26.6067 13.2781C25.7597 12.1133 25.1245 11.2663 25.1245 11.2663C25.1245 11.2663 25.5847 10.5254 24.7194 9.94325C24.1188 9.14881 24.1188 9.09575 24.1188 9.09575C24.1188 9.09575 24.6479 7.19053 22.6896 7.56096C21.3661 7.5079 19.8752 7.13747 19.5134 7.77271C19.1517 8.09059 18.6134 8.00385 18.3491 7.35891C17.8725 7.0844 17.1312 7.34105 17.1312 7.34105C17.1312 7.34105 16.5112 6.97878 16.8138 6.55529C17.1159 5.97311 17.0255 5.7083 16.2847 5.86698C15.9709 5.88943 15.6581 5.84096 15.3724 5.79249C15.1407 5.75371 14.9275 5.71391 14.7479 5.71289H14.729Z" fill="white"/>
</mask>
<g mask="url(#mask61_928_100887)">
<path d="M6.28857 19.168L6.45032 20.2185H31.2237L31.0624 19.168H6.28857Z" fill="#319044"/>
</g>
</g>
<mask id="mask62_928_100887" style="mask-type:luminance" maskUnits="userSpaceOnUse" x="20" y="19" width="8" height="2">
<path d="M20.1099 19.1582H27.0327V20.3338H20.1099V19.1582Z" fill="white"/>
</mask>
<g mask="url(#mask62_928_100887)">
<mask id="mask63_928_100887" style="mask-type:luminance" maskUnits="userSpaceOnUse" x="16" y="19" width="11" height="2">
<path d="M16.5703 19.168C16.8458 19.3807 17.1785 19.6884 17.2989 20.218H26.1127C26.0586 20.0343 26.2326 19.9655 26.7387 19.3654C26.7949 19.3011 26.8525 19.2348 26.9117 19.168H16.5703Z" fill="white"/>
</mask>
<g mask="url(#mask63_928_100887)">
<path d="M21.5256 18.8438L20.1484 20.4168H42.6273V19.7229L21.5256 18.8438Z" fill="#B3A168"/>
</g>
</g>
<mask id="mask64_928_100887" style="mask-type:luminance" maskUnits="userSpaceOnUse" x="20" y="19" width="4" height="2">
<path d="M20.2407 19.1582H23.7675V20.3338H20.2407V19.1582Z" fill="white"/>
</mask>
<g mask="url(#mask64_928_100887)">
<mask id="mask65_928_100887" style="mask-type:luminance" maskUnits="userSpaceOnUse" x="20" y="19" width="7" height="2">
<path d="M21.2427 19.168L20.3232 20.218H26.1129C26.0588 20.0343 26.2333 19.9655 26.7389 19.3654C26.795 19.3011 26.8527 19.2348 26.9119 19.168H21.2427Z" fill="white"/>
</mask>
<g mask="url(#mask65_928_100887)">
<path d="M18.8466 10.3867C18.8466 10.3867 23.7627 12.5792 23.7627 16.8305C23.7627 21.0818 16.1235 23.3406 16.1235 23.3406L18.8466 10.3867Z" fill="#7D7246"/>
</g>
</g>
<mask id="mask66_928_100887" style="mask-type:luminance" maskUnits="userSpaceOnUse" x="7" y="22" width="24" height="2">
<path d="M7.70117 22.293H30.2984V23.4685H7.70117V22.293Z" fill="white"/>
</mask>
<g mask="url(#mask66_928_100887)">
<mask id="mask67_928_100887" style="mask-type:luminance" maskUnits="userSpaceOnUse" x="7" y="5" width="24" height="26">
<path d="M14.729 5.71289C14.6142 5.7134 14.5137 5.73075 14.432 5.77463C13.8493 5.97311 12.8967 6.18435 12.8967 6.18435C12.8967 6.18435 12.5263 6.02566 11.7849 6.3961C11.0441 6.92572 10.8854 7.0844 10.8854 7.0844C10.8854 7.0844 10.6206 8.30233 9.82616 8.30233C9.35011 8.93707 8.29137 10.3137 8.02656 11.2663C7.49694 12.6424 7.70869 13.9659 8.29137 14.7599C9.13836 15.9247 9.87922 17.0365 11.6788 16.7187C13.532 16.2952 13.6907 16.2421 14.0611 16.2421C14.6433 16.2952 15.4372 16.8773 15.4372 16.8773C16.0199 16.8773 16.3372 17.0891 16.3372 17.0891C16.3372 17.0891 16.0724 18.6244 16.1786 18.8361C16.3372 19.1009 17.2898 19.405 17.3429 20.5495C17.396 21.6945 17.7133 22.3297 17.7133 22.3297C17.7133 22.3297 17.6608 22.965 17.1842 23.4941C16.7077 24.0237 17.5016 25.3998 17.8195 25.7177C18.0312 26.2999 18.243 27.1999 18.296 27.6765C18.8496 28.2056 18.8496 28.4704 19.1961 29.6878C19.1961 29.6878 19.4078 30.3231 20.413 29.8465C21.6309 29.6878 21.9483 29.8465 22.5304 28.9995C23.4836 27.9938 23.7484 27.8882 23.8014 27.3586C24.2244 26.6177 24.754 26.406 24.754 26.406C24.754 25.7702 24.8071 25.1355 24.4892 24.9768C25.4949 24.5003 26.2888 23.9706 26.6598 23.7589C26.7654 22.965 26.6067 20.8873 26.2888 20.5495C25.9715 20.0005 26.024 20.2122 26.7389 19.3652C27.6124 18.3596 28.8829 16.9835 28.8829 16.9835C28.8829 16.9835 29.2538 16.3482 29.3594 15.713C30.1003 14.9191 30.8804 13.4899 29.4053 13.9659C28.7772 14.2308 28.2476 14.6374 27.718 14.2308C27.5068 13.5424 27.0302 13.2781 26.6067 13.2781C25.7597 12.1133 25.1245 11.2663 25.1245 11.2663C25.1245 11.2663 25.5847 10.5254 24.7194 9.94325C24.1188 9.14881 24.1188 9.09575 24.1188 9.09575C24.1188 9.09575 24.6479 7.19053 22.6896 7.56096C21.3661 7.5079 19.8752 7.13747 19.5134 7.77271C19.1517 8.09059 18.6134 8.00385 18.3491 7.35891C17.8725 7.0844 17.1312 7.34105 17.1312 7.34105C17.1312 7.34105 16.5112 6.97878 16.8138 6.55529C17.1159 5.97311 17.0255 5.7083 16.2847 5.86698C15.9709 5.88943 15.6581 5.84096 15.3724 5.79249C15.1407 5.75371 14.9275 5.71391 14.7479 5.71289H14.729Z" fill="white"/>
</mask>
<g mask="url(#mask67_928_100887)">
<path d="M6.38574 23.3706H31.1591V22.3145H6.38574V23.3706Z" fill="#B3A168"/>
</g>
</g>
<mask id="mask68_928_100887" style="mask-type:luminance" maskUnits="userSpaceOnUse" x="18" y="22" width="6" height="2">
<path d="M18.4121 22.293H23.6369V23.4685H18.4121V22.293Z" fill="white"/>
</mask>
<g mask="url(#mask68_928_100887)">
<mask id="mask69_928_100887" style="mask-type:luminance" maskUnits="userSpaceOnUse" x="17" y="22" width="10" height="2">
<path d="M17.7065 22.3145C17.7111 22.3252 17.7136 22.3303 17.7136 22.3303C17.7136 22.3303 17.6687 22.8711 17.2876 23.3706H26.6886C26.6988 23.065 26.6892 22.6905 26.6616 22.3145H17.7065Z" fill="white"/>
</mask>
<g mask="url(#mask69_928_100887)">
<path d="M19.0462 21.4141C19.0462 21.4141 24.8256 23.8719 23.2312 28.788C21.6367 29.0533 21.7035 24.603 21.7035 24.603L18.4482 21.8794L19.0462 21.4141Z" fill="#7D7246"/>
</g>
</g>
<mask id="mask70_928_100887" style="mask-type:luminance" maskUnits="userSpaceOnUse" x="17" y="22" width="3" height="2">
<path d="M17.2363 22.293H19.065V23.4685H17.2363V22.293Z" fill="white"/>
</mask>
<g mask="url(#mask70_928_100887)">
<mask id="mask71_928_100887" style="mask-type:luminance" maskUnits="userSpaceOnUse" x="17" y="22" width="10" height="2">
<path d="M17.706 22.3145C17.7106 22.3252 17.7132 22.3303 17.7132 22.3303C17.7132 22.3303 17.6683 22.8711 17.2871 23.3706H26.6882C26.6984 23.065 26.6887 22.6905 26.6611 22.3145H17.706Z" fill="white"/>
</mask>
<g mask="url(#mask71_928_100887)">
<path d="M-4.82666 22.3203L-2.96737 24.0577H18.9818V22.3203H-4.82666Z" fill="#231F20"/>
</g>
</g>
<mask id="mask72_928_100887" style="mask-type:luminance" maskUnits="userSpaceOnUse" x="7" y="20" width="24" height="2">
<path d="M7.70117 20.7246H30.2984V21.9002H7.70117V20.7246Z" fill="white"/>
</mask>
<g mask="url(#mask72_928_100887)">
<mask id="mask73_928_100887" style="mask-type:luminance" maskUnits="userSpaceOnUse" x="7" y="5" width="24" height="26">
<path d="M14.729 5.71289C14.6142 5.7134 14.5137 5.73075 14.432 5.77463C13.8493 5.97311 12.8967 6.18435 12.8967 6.18435C12.8967 6.18435 12.5263 6.02566 11.7849 6.3961C11.0441 6.92572 10.8854 7.0844 10.8854 7.0844C10.8854 7.0844 10.6206 8.30233 9.82616 8.30233C9.35011 8.93707 8.29137 10.3137 8.02656 11.2663C7.49694 12.6424 7.70869 13.9659 8.29137 14.7599C9.13836 15.9247 9.87922 17.0365 11.6788 16.7187C13.532 16.2952 13.6907 16.2421 14.0611 16.2421C14.6433 16.2952 15.4372 16.8773 15.4372 16.8773C16.0199 16.8773 16.3372 17.0891 16.3372 17.0891C16.3372 17.0891 16.0724 18.6244 16.1786 18.8361C16.3372 19.1009 17.2898 19.405 17.3429 20.5495C17.396 21.6945 17.7133 22.3297 17.7133 22.3297C17.7133 22.3297 17.6608 22.965 17.1842 23.4941C16.7077 24.0237 17.5016 25.3998 17.8195 25.7177C18.0312 26.2999 18.243 27.1999 18.296 27.6765C18.8496 28.2056 18.8496 28.4704 19.1961 29.6878C19.1961 29.6878 19.4078 30.3231 20.413 29.8465C21.6309 29.6878 21.9483 29.8465 22.5304 28.9995C23.4836 27.9938 23.7484 27.8882 23.8014 27.3586C24.2244 26.6177 24.754 26.406 24.754 26.406C24.754 25.7702 24.8071 25.1355 24.4892 24.9768C25.4949 24.5003 26.2888 23.9706 26.6598 23.7589C26.7654 22.965 26.6067 20.8873 26.2888 20.5495C25.9715 20.0005 26.024 20.2122 26.7389 19.3652C27.6124 18.3596 28.8829 16.9835 28.8829 16.9835C28.8829 16.9835 29.2538 16.3482 29.3594 15.713C30.1003 14.9191 30.8804 13.4899 29.4053 13.9659C28.7772 14.2308 28.2476 14.6374 27.718 14.2308C27.5068 13.5424 27.0302 13.2781 26.6067 13.2781C25.7597 12.1133 25.1245 11.2663 25.1245 11.2663C25.1245 11.2663 25.5847 10.5254 24.7194 9.94325C24.1188 9.14881 24.1188 9.09575 24.1188 9.09575C24.1188 9.09575 24.6479 7.19053 22.6896 7.56096C21.3661 7.5079 19.8752 7.13747 19.5134 7.77271C19.1517 8.09059 18.6134 8.00385 18.3491 7.35891C17.8725 7.0844 17.1312 7.34105 17.1312 7.34105C17.1312 7.34105 16.5112 6.97878 16.8138 6.55529C17.1159 5.97311 17.0255 5.7083 16.2847 5.86698C15.9709 5.88943 15.6581 5.84096 15.3724 5.79249C15.1407 5.75371 14.9275 5.71391 14.7479 5.71289H14.729Z" fill="white"/>
</mask>
<g mask="url(#mask73_928_100887)">
<path d="M6.38574 21.7947H31.1591V20.7441H6.38574V21.7947Z" fill="#319044"/>
</g>
</g>
<mask id="mask74_928_100887" style="mask-type:luminance" maskUnits="userSpaceOnUse" x="18" y="20" width="9" height="2">
<path d="M18.543 20.7246H26.6414V21.9002H18.543V20.7246Z" fill="white"/>
</mask>
<g mask="url(#mask74_928_100887)">
<mask id="mask75_928_100887" style="mask-type:luminance" maskUnits="userSpaceOnUse" x="17" y="20" width="10" height="2">
<path d="M17.355 20.7422C17.3876 21.1789 17.458 21.5315 17.5279 21.7928H26.6126C26.5626 21.3652 26.4892 20.9784 26.3973 20.7422H17.355Z" fill="white"/>
</mask>
<g mask="url(#mask75_928_100887)">
<path d="M18.6935 20.5801L18.6572 21.8353H27.3899L27.4261 20.5801H18.6935Z" fill="#B3A168"/>
</g>
</g>
<mask id="mask76_928_100887" style="mask-type:luminance" maskUnits="userSpaceOnUse" x="18" y="20" width="6" height="2">
<path d="M18.543 20.7246H23.7678V21.9002H18.543V20.7246Z" fill="white"/>
</mask>
<g mask="url(#mask76_928_100887)">
<mask id="mask77_928_100887" style="mask-type:luminance" maskUnits="userSpaceOnUse" x="18" y="20" width="9" height="2">
<path d="M18.6888 20.7422L18.6587 21.7928H26.6127C26.5627 21.3652 26.4892 20.9784 26.3974 20.7422H18.6888Z" fill="white"/>
</mask>
<g mask="url(#mask77_928_100887)">
<path d="M18.8466 10.3867C18.8466 10.3867 23.7627 12.5792 23.7627 16.8305C23.7627 21.0818 16.1235 23.3406 16.1235 23.3406L18.8466 10.3867Z" fill="#7D7246"/>
</g>
</g>
<mask id="mask78_928_100887" style="mask-type:luminance" maskUnits="userSpaceOnUse" x="7" y="23" width="24" height="3">
<path d="M7.70117 23.8613H30.2984V25.0369H7.70117V23.8613Z" fill="white"/>
</mask>
<g mask="url(#mask78_928_100887)">
<mask id="mask79_928_100887" style="mask-type:luminance" maskUnits="userSpaceOnUse" x="7" y="5" width="24" height="26">
<path d="M14.729 5.71289C14.6142 5.7134 14.5137 5.73075 14.432 5.77463C13.8493 5.97311 12.8967 6.18435 12.8967 6.18435C12.8967 6.18435 12.5263 6.02566 11.7849 6.3961C11.0441 6.92572 10.8854 7.0844 10.8854 7.0844C10.8854 7.0844 10.6206 8.30233 9.82616 8.30233C9.35011 8.93707 8.29137 10.3137 8.02656 11.2663C7.49694 12.6424 7.70869 13.9659 8.29137 14.7599C9.13836 15.9247 9.87922 17.0365 11.6788 16.7187C13.532 16.2952 13.6907 16.2421 14.0611 16.2421C14.6433 16.2952 15.4372 16.8773 15.4372 16.8773C16.0199 16.8773 16.3372 17.0891 16.3372 17.0891C16.3372 17.0891 16.0724 18.6244 16.1786 18.8361C16.3372 19.1009 17.2898 19.405 17.3429 20.5495C17.396 21.6945 17.7133 22.3297 17.7133 22.3297C17.7133 22.3297 17.6608 22.965 17.1842 23.4941C16.7077 24.0237 17.5016 25.3998 17.8195 25.7177C18.0312 26.2999 18.243 27.1999 18.296 27.6765C18.8496 28.2056 18.8496 28.4704 19.1961 29.6878C19.1961 29.6878 19.4078 30.3231 20.413 29.8465C21.6309 29.6878 21.9483 29.8465 22.5304 28.9995C23.4836 27.9938 23.7484 27.8882 23.8014 27.3586C24.2244 26.6177 24.754 26.406 24.754 26.406C24.754 25.7702 24.8071 25.1355 24.4892 24.9768C25.4949 24.5003 26.2888 23.9706 26.6598 23.7589C26.7654 22.965 26.6067 20.8873 26.2888 20.5495C25.9715 20.0005 26.024 20.2122 26.7389 19.3652C27.6124 18.3596 28.8829 16.9835 28.8829 16.9835C28.8829 16.9835 29.2538 16.3482 29.3594 15.713C30.1003 14.9191 30.8804 13.4899 29.4053 13.9659C28.7772 14.2308 28.2476 14.6374 27.718 14.2308C27.5068 13.5424 27.0302 13.2781 26.6067 13.2781C25.7597 12.1133 25.1245 11.2663 25.1245 11.2663C25.1245 11.2663 25.5847 10.5254 24.7194 9.94325C24.1188 9.14881 24.1188 9.09575 24.1188 9.09575C24.1188 9.09575 24.6479 7.19053 22.6896 7.56096C21.3661 7.5079 19.8752 7.13747 19.5134 7.77271C19.1517 8.09059 18.6134 8.00385 18.3491 7.35891C17.8725 7.0844 17.1312 7.34105 17.1312 7.34105C17.1312 7.34105 16.5112 6.97878 16.8138 6.55529C17.1159 5.97311 17.0255 5.7083 16.2847 5.86698C15.9709 5.88943 15.6581 5.84096 15.3724 5.79249C15.1407 5.75371 14.9275 5.71391 14.7479 5.71289H14.729Z" fill="white"/>
</mask>
<g mask="url(#mask79_928_100887)">
<path d="M6.38574 24.9471H31.1591V23.9297H6.38574V24.9471Z" fill="#B3A168"/>
</g>
</g>
<mask id="mask80_928_100887" style="mask-type:luminance" maskUnits="userSpaceOnUse" x="18" y="23" width="6" height="3">
<path d="M18.4121 23.8613H23.6369V25.0369H18.4121V23.8613Z" fill="white"/>
</mask>
<g mask="url(#mask80_928_100887)">
<mask id="mask81_928_100887" style="mask-type:luminance" maskUnits="userSpaceOnUse" x="17" y="23" width="10" height="2">
<path d="M17.0363 23.9297C17.0307 24.2394 17.1588 24.6149 17.32 24.9471H24.5541C25.3225 24.5777 25.9623 24.1823 26.3761 23.9297H17.0363Z" fill="white"/>
</mask>
<g mask="url(#mask81_928_100887)">
<path d="M19.0467 21.416C19.0467 21.416 24.8261 23.8738 23.2317 28.7899C21.6372 29.0553 21.704 24.605 21.704 24.605L18.4487 21.8813L19.0467 21.416Z" fill="#7D7246"/>
</g>
</g>
<mask id="mask82_928_100887" style="mask-type:luminance" maskUnits="userSpaceOnUse" x="16" y="23" width="6" height="3">
<path d="M16.9751 23.8613H21.4162V25.0369H16.9751V23.8613Z" fill="white"/>
</mask>
<g mask="url(#mask82_928_100887)">
<mask id="mask83_928_100887" style="mask-type:luminance" maskUnits="userSpaceOnUse" x="17" y="23" width="10" height="2">
<path d="M17.0358 23.9297C17.0302 24.2394 17.1583 24.6149 17.3195 24.9471H24.5536C25.322 24.5777 25.9618 24.1823 26.3756 23.9297H17.0358Z" fill="white"/>
</mask>
<g mask="url(#mask83_928_100887)">
<path d="M-0.0117188 25.1894H21.3293V23.8965H-0.0117188V25.1894Z" fill="#231F20"/>
</g>
</g>
<mask id="mask84_928_100887" style="mask-type:luminance" maskUnits="userSpaceOnUse" x="7" y="25" width="24" height="2">
<path d="M7.70117 25.4277H30.2984V26.6033H7.70117V25.4277Z" fill="white"/>
</mask>
<g mask="url(#mask84_928_100887)">
<mask id="mask85_928_100887" style="mask-type:luminance" maskUnits="userSpaceOnUse" x="7" y="5" width="24" height="26">
<path d="M14.729 5.71289C14.6142 5.7134 14.5137 5.73075 14.432 5.77463C13.8493 5.97311 12.8967 6.18435 12.8967 6.18435C12.8967 6.18435 12.5263 6.02566 11.7849 6.3961C11.0441 6.92572 10.8854 7.0844 10.8854 7.0844C10.8854 7.0844 10.6206 8.30233 9.82616 8.30233C9.35011 8.93707 8.29137 10.3137 8.02656 11.2663C7.49694 12.6424 7.70869 13.9659 8.29137 14.7599C9.13836 15.9247 9.87922 17.0365 11.6788 16.7187C13.532 16.2952 13.6907 16.2421 14.0611 16.2421C14.6433 16.2952 15.4372 16.8773 15.4372 16.8773C16.0199 16.8773 16.3372 17.0891 16.3372 17.0891C16.3372 17.0891 16.0724 18.6244 16.1786 18.8361C16.3372 19.1009 17.2898 19.405 17.3429 20.5495C17.396 21.6945 17.7133 22.3297 17.7133 22.3297C17.7133 22.3297 17.6608 22.965 17.1842 23.4941C16.7077 24.0237 17.5016 25.3998 17.8195 25.7177C18.0312 26.2999 18.243 27.1999 18.296 27.6765C18.8496 28.2056 18.8496 28.4704 19.1961 29.6878C19.1961 29.6878 19.4078 30.3231 20.413 29.8465C21.6309 29.6878 21.9483 29.8465 22.5304 28.9995C23.4836 27.9938 23.7484 27.8882 23.8014 27.3586C24.2244 26.6177 24.754 26.406 24.754 26.406C24.754 25.7702 24.8071 25.1355 24.4892 24.9768C25.4949 24.5003 26.2888 23.9706 26.6598 23.7589C26.7654 22.965 26.6067 20.8873 26.2888 20.5495C25.9715 20.0005 26.024 20.2122 26.7389 19.3652C27.6124 18.3596 28.8829 16.9835 28.8829 16.9835C28.8829 16.9835 29.2538 16.3482 29.3594 15.713C30.1003 14.9191 30.8804 13.4899 29.4053 13.9659C28.7772 14.2308 28.2476 14.6374 27.718 14.2308C27.5068 13.5424 27.0302 13.2781 26.6067 13.2781C25.7597 12.1133 25.1245 11.2663 25.1245 11.2663C25.1245 11.2663 25.5847 10.5254 24.7194 9.94325C24.1188 9.14881 24.1188 9.09575 24.1188 9.09575C24.1188 9.09575 24.6479 7.19053 22.6896 7.56096C21.3661 7.5079 19.8752 7.13747 19.5134 7.77271C19.1517 8.09059 18.6134 8.00385 18.3491 7.35891C17.8725 7.0844 17.1312 7.34105 17.1312 7.34105C17.1312 7.34105 16.5112 6.97878 16.8138 6.55529C17.1159 5.97311 17.0255 5.7083 16.2847 5.86698C15.9709 5.88943 15.6581 5.84096 15.3724 5.79249C15.1407 5.75371 14.9275 5.71391 14.7479 5.71289H14.729Z" fill="white"/>
</mask>
<g mask="url(#mask85_928_100887)">
<path d="M6.38574 26.521H31.1591V25.4434H6.38574V26.521Z" fill="#B3A168"/>
</g>
</g>
<mask id="mask86_928_100887" style="mask-type:luminance" maskUnits="userSpaceOnUse" x="18" y="25" width="6" height="2">
<path d="M18.4121 25.4277H23.6369V26.6033H18.4121V25.4277Z" fill="white"/>
</mask>
<g mask="url(#mask86_928_100887)">
<mask id="mask87_928_100887" style="mask-type:luminance" maskUnits="userSpaceOnUse" x="17" y="25" width="8" height="2">
<path d="M17.605 25.4434C17.6856 25.5628 17.7611 25.6582 17.8198 25.7168C17.9045 25.95 17.9892 26.2337 18.0637 26.521H24.5498C24.6737 26.4373 24.7544 26.4052 24.7544 26.4052C24.7544 26.0587 24.7702 25.7123 24.7329 25.4434H17.605Z" fill="white"/>
</mask>
<g mask="url(#mask87_928_100887)">
<path d="M19.0467 21.4141C19.0467 21.4141 24.8261 23.8719 23.2317 28.788C21.6372 29.0533 21.704 24.603 21.704 24.603L18.4487 21.8794L19.0467 21.4141Z" fill="#7D7246"/>
</g>
</g>
<mask id="mask88_928_100887" style="mask-type:luminance" maskUnits="userSpaceOnUse" x="17" y="25" width="6" height="2">
<path d="M17.4976 25.4277H22.1999V26.6033H17.4976V25.4277Z" fill="white"/>
</mask>
<g mask="url(#mask88_928_100887)">
<mask id="mask89_928_100887" style="mask-type:luminance" maskUnits="userSpaceOnUse" x="17" y="25" width="8" height="2">
<path d="M17.605 25.4434C17.6856 25.5628 17.7611 25.6582 17.8198 25.7168C17.9045 25.95 17.9892 26.2337 18.0637 26.521H24.5498C24.6737 26.4373 24.7544 26.4052 24.7544 26.4052C24.7544 26.0587 24.7702 25.7123 24.7329 25.4434H17.605Z" fill="white"/>
</mask>
<g mask="url(#mask89_928_100887)">
<path d="M-2.19385 26.5215H22.0851V25.2285H-2.19385V26.5215Z" fill="#231F20"/>
</g>
</g>
<mask id="mask90_928_100887" style="mask-type:luminance" maskUnits="userSpaceOnUse" x="7" y="29" width="24" height="2">
<path d="M7.70117 29.2168H30.2984V30.1311H7.70117V29.2168Z" fill="white"/>
</mask>
<g mask="url(#mask90_928_100887)">
<mask id="mask91_928_100887" style="mask-type:luminance" maskUnits="userSpaceOnUse" x="7" y="5" width="24" height="26">
<path d="M14.729 5.71484C14.6142 5.71535 14.5137 5.7327 14.432 5.77658C13.8493 5.97506 12.8967 6.1863 12.8967 6.1863C12.8967 6.1863 12.5263 6.02762 11.7849 6.39805C11.0441 6.92767 10.8854 7.08636 10.8854 7.08636C10.8854 7.08636 10.6206 8.30429 9.82616 8.30429C9.35011 8.93902 8.29137 10.3156 8.02656 11.2682C7.49694 12.6443 7.70869 13.9679 8.29137 14.7618C9.13836 15.9267 9.87922 17.0385 11.6788 16.7206C13.532 16.2971 13.6907 16.2441 14.0611 16.2441C14.6433 16.2971 15.4372 16.8793 15.4372 16.8793C16.0199 16.8793 16.3372 17.091 16.3372 17.091C16.3372 17.091 16.0724 18.6263 16.1786 18.8381C16.3372 19.1029 17.2898 19.407 17.3429 20.5515C17.396 21.6964 17.7133 22.3317 17.7133 22.3317C17.7133 22.3317 17.6608 22.9669 17.1842 23.496C16.7077 24.0256 17.5016 25.4018 17.8195 25.7196C18.0312 26.3018 18.243 27.2019 18.296 27.6784C18.8496 28.2075 18.8496 28.4723 19.1961 29.6898C19.1961 29.6898 19.4078 30.325 20.413 29.8484C21.6309 29.6898 21.9483 29.8484 22.5304 29.0015C23.4836 27.9958 23.7484 27.8902 23.8014 27.3605C24.2244 26.6197 24.754 26.4079 24.754 26.4079C24.754 25.7722 24.8071 25.1374 24.4892 24.9788C25.4949 24.5022 26.2888 23.9726 26.6598 23.7608C26.7654 22.9669 26.6067 20.8892 26.2888 20.5515C25.9715 20.0024 26.024 20.2142 26.7389 19.3672C27.6124 18.3615 28.8829 16.9854 28.8829 16.9854C28.8829 16.9854 29.2538 16.3502 29.3594 15.7149C30.1003 14.921 30.8804 13.4918 29.4053 13.9679C28.7772 14.2327 28.2476 14.6394 27.718 14.2327C27.5068 13.5444 27.0302 13.2801 26.6067 13.2801C25.7597 12.1152 25.1245 11.2682 25.1245 11.2682C25.1245 11.2682 25.5847 10.5274 24.7194 9.9452C24.1188 9.15077 24.1188 9.0977 24.1188 9.0977C24.1188 9.0977 24.6479 7.19248 22.6896 7.56291C21.3661 7.50985 19.8752 7.13942 19.5134 7.77466C19.1517 8.09254 18.6134 8.0058 18.3491 7.36086C17.8725 7.08636 17.1312 7.343 17.1312 7.343C17.1312 7.343 16.5112 6.98074 16.8138 6.55724C17.1159 5.97506 17.0255 5.71025 16.2847 5.86893C15.9709 5.89139 15.6581 5.84291 15.3724 5.79444C15.1407 5.75566 14.9275 5.71586 14.7479 5.71484H14.729Z" fill="white"/>
</mask>
<g mask="url(#mask91_928_100887)">
<path d="M6.38574 30.0162H31.1591V29.3223H6.38574V30.0162Z" fill="#00AEEF"/>
</g>
</g>
<mask id="mask92_928_100887" style="mask-type:luminance" maskUnits="userSpaceOnUse" x="20" y="6" width="11" height="2">
<path d="M20.7632 6.48828H30.2984V7.272H20.7632V6.48828Z" fill="white"/>
</mask>
<g mask="url(#mask92_928_100887)">
<mask id="mask93_928_100887" style="mask-type:luminance" maskUnits="userSpaceOnUse" x="7" y="5" width="24" height="26">
<path d="M14.729 5.71289C14.6142 5.7134 14.5137 5.73075 14.432 5.77463C13.8493 5.97311 12.8967 6.18435 12.8967 6.18435C12.8967 6.18435 12.5263 6.02566 11.7849 6.3961C11.0441 6.92572 10.8854 7.0844 10.8854 7.0844C10.8854 7.0844 10.6206 8.30233 9.82616 8.30233C9.35011 8.93707 8.29137 10.3137 8.02656 11.2663C7.49694 12.6424 7.70869 13.9659 8.29137 14.7599C9.13836 15.9247 9.87922 17.0365 11.6788 16.7187C13.532 16.2952 13.6907 16.2421 14.0611 16.2421C14.6433 16.2952 15.4372 16.8773 15.4372 16.8773C16.0199 16.8773 16.3372 17.0891 16.3372 17.0891C16.3372 17.0891 16.0724 18.6244 16.1786 18.8361C16.3372 19.1009 17.2898 19.405 17.3429 20.5495C17.396 21.6945 17.7133 22.3297 17.7133 22.3297C17.7133 22.3297 17.6608 22.965 17.1842 23.4941C16.7077 24.0237 17.5016 25.3998 17.8195 25.7177C18.0312 26.2999 18.243 27.1999 18.296 27.6765C18.8496 28.2056 18.8496 28.4704 19.1961 29.6878C19.1961 29.6878 19.4078 30.3231 20.413 29.8465C21.6309 29.6878 21.9483 29.8465 22.5304 28.9995C23.4836 27.9938 23.7484 27.8882 23.8014 27.3586C24.2244 26.6177 24.754 26.406 24.754 26.406C24.754 25.7702 24.8071 25.1355 24.4892 24.9768C25.4949 24.5003 26.2888 23.9706 26.6598 23.7589C26.7654 22.965 26.6067 20.8873 26.2888 20.5495C25.9715 20.0005 26.024 20.2122 26.7389 19.3652C27.6124 18.3596 28.8829 16.9835 28.8829 16.9835C28.8829 16.9835 29.2538 16.3482 29.3594 15.713C30.1003 14.9191 30.8804 13.4899 29.4053 13.9659C28.7772 14.2308 28.2476 14.6374 27.718 14.2308C27.5068 13.5424 27.0302 13.2781 26.6067 13.2781C25.7597 12.1133 25.1245 11.2663 25.1245 11.2663C25.1245 11.2663 25.5847 10.5254 24.7194 9.94325C24.1188 9.14881 24.1188 9.09575 24.1188 9.09575C24.1188 9.09575 24.6479 7.19053 22.6896 7.56096C21.3661 7.5079 19.8752 7.13747 19.5134 7.77271C19.1517 8.09059 18.6134 8.00385 18.3491 7.35891C17.8725 7.0844 17.1312 7.34105 17.1312 7.34105C17.1312 7.34105 16.5112 6.97878 16.8138 6.55529C17.1159 5.97311 17.0255 5.7083 16.2847 5.86698C15.9709 5.88943 15.6581 5.84096 15.3724 5.79249C15.1407 5.75371 14.9275 5.71391 14.7479 5.71289H14.729Z" fill="white"/>
</mask>
<g mask="url(#mask93_928_100887)">
<path d="M20.8369 7.2481H42.6274V6.55469H20.8369V7.2481Z" fill="#15234F"/>
</g>
</g>
<mask id="mask94_928_100887" style="mask-type:luminance" maskUnits="userSpaceOnUse" x="17" y="26" width="14" height="3">
<path d="M17.7588 26.9961H30.2983V28.1717H17.7588V26.9961Z" fill="white"/>
</mask>
<g mask="url(#mask94_928_100887)">
<mask id="mask95_928_100887" style="mask-type:luminance" maskUnits="userSpaceOnUse" x="7" y="5" width="24" height="26">
<path d="M14.729 5.71289C14.6142 5.7134 14.5137 5.73075 14.432 5.77463C13.8493 5.97311 12.8967 6.18435 12.8967 6.18435C12.8967 6.18435 12.5263 6.02566 11.7849 6.3961C11.0441 6.92572 10.8854 7.0844 10.8854 7.0844C10.8854 7.0844 10.6206 8.30233 9.82616 8.30233C9.35011 8.93707 8.29137 10.3137 8.02656 11.2663C7.49694 12.6424 7.70869 13.9659 8.29137 14.7599C9.13836 15.9247 9.87922 17.0365 11.6788 16.7187C13.532 16.2952 13.6907 16.2421 14.0611 16.2421C14.6433 16.2952 15.4372 16.8773 15.4372 16.8773C16.0199 16.8773 16.3372 17.0891 16.3372 17.0891C16.3372 17.0891 16.0724 18.6244 16.1786 18.8361C16.3372 19.1009 17.2898 19.405 17.3429 20.5495C17.396 21.6945 17.7133 22.3297 17.7133 22.3297C17.7133 22.3297 17.6608 22.965 17.1842 23.4941C16.7077 24.0237 17.5016 25.3998 17.8195 25.7177C18.0312 26.2999 18.243 27.1999 18.296 27.6765C18.8496 28.2056 18.8496 28.4704 19.1961 29.6878C19.1961 29.6878 19.4078 30.3231 20.413 29.8465C21.6309 29.6878 21.9483 29.8465 22.5304 28.9995C23.4836 27.9938 23.7484 27.8882 23.8014 27.3586C24.2244 26.6177 24.754 26.406 24.754 26.406C24.754 25.7702 24.8071 25.1355 24.4892 24.9768C25.4949 24.5003 26.2888 23.9706 26.6598 23.7589C26.7654 22.965 26.6067 20.8873 26.2888 20.5495C25.9715 20.0005 26.024 20.2122 26.7389 19.3652C27.6124 18.3596 28.8829 16.9835 28.8829 16.9835C28.8829 16.9835 29.2538 16.3482 29.3594 15.713C30.1003 14.9191 30.8804 13.4899 29.4053 13.9659C28.7772 14.2308 28.2476 14.6374 27.718 14.2308C27.5068 13.5424 27.0302 13.2781 26.6067 13.2781C25.7597 12.1133 25.1245 11.2663 25.1245 11.2663C25.1245 11.2663 25.5847 10.5254 24.7194 9.94325C24.1188 9.14881 24.1188 9.09575 24.1188 9.09575C24.1188 9.09575 24.6479 7.19053 22.6896 7.56096C21.3661 7.5079 19.8752 7.13747 19.5134 7.77271C19.1517 8.09059 18.6134 8.00385 18.3491 7.35891C17.8725 7.0844 17.1312 7.34105 17.1312 7.34105C17.1312 7.34105 16.5112 6.97878 16.8138 6.55529C17.1159 5.97311 17.0255 5.7083 16.2847 5.86698C15.9709 5.88943 15.6581 5.84096 15.3724 5.79249C15.1407 5.75371 14.9275 5.71391 14.7479 5.71289H14.729Z" fill="white"/>
</mask>
<g mask="url(#mask95_928_100887)">
<path d="M17.8735 28.125H42.6474V27.0469H17.8735V28.125Z" fill="#B3A168"/>
</g>
</g>
<mask id="mask96_928_100887" style="mask-type:luminance" maskUnits="userSpaceOnUse" x="18" y="26" width="6" height="3">
<path d="M18.4121 26.9961H23.5063V28.1717H18.4121V26.9961Z" fill="white"/>
</mask>
<g mask="url(#mask96_928_100887)">
<mask id="mask97_928_100887" style="mask-type:luminance" maskUnits="userSpaceOnUse" x="18" y="27" width="7" height="2">
<path d="M18.188 27.0488C18.239 27.2891 18.2773 27.5101 18.2962 27.6779C18.4666 27.8407 18.5844 27.9785 18.6763 28.127H23.3888C23.6648 27.8371 23.7699 27.6723 23.8016 27.3601C23.8679 27.2437 23.9368 27.1402 24.0062 27.0488H18.188Z" fill="white"/>
</mask>
<g mask="url(#mask97_928_100887)">
<path d="M19.0462 21.416C19.0462 21.416 24.8083 23.933 23.2143 28.8486C21.3627 29.5971 21.7035 24.605 21.7035 24.605L18.4482 21.8813L19.0462 21.416Z" fill="#7D7246"/>
</g>
</g>
<mask id="mask98_928_100887" style="mask-type:luminance" maskUnits="userSpaceOnUse" x="18" y="26" width="5" height="3">
<path d="M18.1509 26.9961H22.4613V28.1717H18.1509V26.9961Z" fill="white"/>
</mask>
<g mask="url(#mask98_928_100887)">
<mask id="mask99_928_100887" style="mask-type:luminance" maskUnits="userSpaceOnUse" x="18" y="27" width="7" height="2">
<path d="M18.188 27.0488C18.239 27.2891 18.2773 27.5101 18.2962 27.6779C18.4666 27.8407 18.5844 27.9785 18.6763 28.127H23.3888C23.6648 27.8371 23.7699 27.6723 23.8016 27.3601C23.8679 27.2437 23.9368 27.1402 24.0062 27.0488H18.188Z" fill="white"/>
</mask>
<g mask="url(#mask99_928_100887)">
<path d="M17.145 28.3625H22.4601V26.8145H17.145V28.3625Z" fill="#231F20"/>
</g>
</g>
<mask id="mask100_928_100887" style="mask-type:luminance" maskUnits="userSpaceOnUse" x="17" y="28" width="14" height="3">
<path d="M17.7588 28.5625H30.2983V30.1299H17.7588V28.5625Z" fill="white"/>
</mask>
<g mask="url(#mask100_928_100887)">
<mask id="mask101_928_100887" style="mask-type:luminance" maskUnits="userSpaceOnUse" x="7" y="5" width="24" height="26">
<path d="M14.729 5.71289C14.6142 5.7134 14.5137 5.73075 14.432 5.77463C13.8493 5.97311 12.8967 6.18435 12.8967 6.18435C12.8967 6.18435 12.5263 6.02566 11.7849 6.3961C11.0441 6.92572 10.8854 7.0844 10.8854 7.0844C10.8854 7.0844 10.6206 8.30233 9.82616 8.30233C9.35011 8.93707 8.29137 10.3137 8.02656 11.2663C7.49694 12.6424 7.70869 13.9659 8.29137 14.7599C9.13836 15.9247 9.87922 17.0365 11.6788 16.7187C13.532 16.2952 13.6907 16.2421 14.0611 16.2421C14.6433 16.2952 15.4372 16.8773 15.4372 16.8773C16.0199 16.8773 16.3372 17.0891 16.3372 17.0891C16.3372 17.0891 16.0724 18.6244 16.1786 18.8361C16.3372 19.1009 17.2898 19.405 17.3429 20.5495C17.396 21.6945 17.7133 22.3297 17.7133 22.3297C17.7133 22.3297 17.6608 22.965 17.1842 23.4941C16.7077 24.0237 17.5016 25.3998 17.8195 25.7177C18.0312 26.2999 18.243 27.1999 18.296 27.6765C18.8496 28.2056 18.8496 28.4704 19.1961 29.6878C19.1961 29.6878 19.4078 30.3231 20.413 29.8465C21.6309 29.6878 21.9483 29.8465 22.5304 28.9995C23.4836 27.9938 23.7484 27.8882 23.8014 27.3586C24.2244 26.6177 24.754 26.406 24.754 26.406C24.754 25.7702 24.8071 25.1355 24.4892 24.9768C25.4949 24.5003 26.2888 23.9706 26.6598 23.7589C26.7654 22.965 26.6067 20.8873 26.2888 20.5495C25.9715 20.0005 26.024 20.2122 26.7389 19.3652C27.6124 18.3596 28.8829 16.9835 28.8829 16.9835C28.8829 16.9835 29.2538 16.3482 29.3594 15.713C30.1003 14.9191 30.8804 13.4899 29.4053 13.9659C28.7772 14.2308 28.2476 14.6374 27.718 14.2308C27.5068 13.5424 27.0302 13.2781 26.6067 13.2781C25.7597 12.1133 25.1245 11.2663 25.1245 11.2663C25.1245 11.2663 25.5847 10.5254 24.7194 9.94325C24.1188 9.14881 24.1188 9.09575 24.1188 9.09575C24.1188 9.09575 24.6479 7.19053 22.6896 7.56096C21.3661 7.5079 19.8752 7.13747 19.5134 7.77271C19.1517 8.09059 18.6134 8.00385 18.3491 7.35891C17.8725 7.0844 17.1312 7.34105 17.1312 7.34105C17.1312 7.34105 16.5112 6.97878 16.8138 6.55529C17.1159 5.97311 17.0255 5.7083 16.2847 5.86698C15.9709 5.88943 15.6581 5.84096 15.3724 5.79249C15.1407 5.75371 14.9275 5.71391 14.7479 5.71289H14.729Z" fill="white"/>
</mask>
<g mask="url(#mask101_928_100887)">
<path d="M17.854 31.4518H42.6273V28.623H17.854V31.4518Z" fill="#231F20"/>
</g>
</g>
<mask id="mask102_928_100887" style="mask-type:luminance" maskUnits="userSpaceOnUse" x="18" y="28" width="5" height="1">
<path d="M18.8042 28.5625H22.984V28.9544H18.8042V28.5625Z" fill="white"/>
</mask>
<g mask="url(#mask102_928_100887)">
<mask id="mask103_928_100887" style="mask-type:luminance" maskUnits="userSpaceOnUse" x="18" y="28" width="5" height="3">
<path d="M18.895 28.623C18.9782 28.8807 19.0608 29.2113 19.1966 29.6879C19.1966 29.6879 19.4083 30.3231 20.4135 29.8466C21.6314 29.6879 21.9488 29.8466 22.5309 28.9996C22.6662 28.8572 22.7871 28.7333 22.8958 28.623H18.895Z" fill="white"/>
</mask>
<g mask="url(#mask103_928_100887)">
<path d="M19.0462 21.4141C19.0462 21.4141 24.8083 23.9311 23.2143 28.8467C21.3627 29.5952 21.7035 24.603 21.7035 24.603L18.4482 21.8794L19.0462 21.4141Z" fill="#7D7246"/>
</g>
</g>
<mask id="mask104_928_100887" style="mask-type:luminance" maskUnits="userSpaceOnUse" x="7" y="5" width="23" height="24">
<path d="M7.72363 5.71289H29.1228V28.6934H7.72363V5.71289Z" fill="white"/>
</mask>
<g mask="url(#mask104_928_100887)">
<path d="M12.8647 6.39974C13.2444 7.64574 14.3607 10.1464 17.2109 11.1541C22.6255 13.0685 24.8802 18.0617 17.4767 21.8145" stroke="white" stroke-width="1.21385"/>
</g>
<mask id="mask105_928_100887" style="mask-type:luminance" maskUnits="userSpaceOnUse" x="7" y="5" width="20" height="18">
<path d="M7.72363 5.71289H26.9023V22.0317H7.72363V5.71289Z" fill="white"/>
</mask>
<g mask="url(#mask105_928_100887)">
<path d="M21.5588 7.38741C21.0272 8.53085 19.8674 10.0228 17.3402 10.8958C14.6482 11.8259 12.4782 14.1613 12.4399 16.6543" stroke="white" stroke-width="0.933671"/>
</g>
<mask id="mask106_928_100887" style="mask-type:luminance" maskUnits="userSpaceOnUse" x="14" y="19" width="11" height="12">
<path d="M14.8853 19.9414H24.4205V30.7406H14.8853V19.9414Z" fill="white"/>
</mask>
<g mask="url(#mask106_928_100887)">
<path d="M17.6392 22.6388C17.6392 22.6388 23.8324 25.3726 20.87 29.7969" stroke="white" stroke-width="0.468664"/>
</g>
<mask id="mask107_928_100887" style="mask-type:luminance" maskUnits="userSpaceOnUse" x="10" y="15" width="20" height="16">
<path d="M10.9668 15.1094H29.2536V30.7415H10.9668V15.1094Z" fill="white"/>
</mask>
<g mask="url(#mask107_928_100887)">
<path d="M17.8872 22.0713C19.5133 22.8464 21.9313 24.4577 22.2594 26.8594C22.3961 27.8615 22.217 29.0309 21.3481 30.1621" stroke="#319044" stroke-width="1.21385"/>
</g>
<mask id="mask108_928_100887" style="mask-type:luminance" maskUnits="userSpaceOnUse" x="7" y="5" width="23" height="25">
<path d="M7.72363 5.71289H29.384V29.0852H7.72363V5.71289Z" fill="white"/>
</mask>
<g mask="url(#mask108_928_100887)">
<path d="M13.0679 6.33514C13.4475 7.58114 14.6363 10.066 17.7268 11.1339C22.5342 12.7947 25.4808 18.2313 17.563 22.0055C17.5033 22.0341 17.4421 22.0631 17.3799 22.0938" stroke="#231F20" stroke-width="1.21385"/>
</g>
<mask id="mask109_928_100887" style="mask-type:luminance" maskUnits="userSpaceOnUse" x="7" y="5" width="22" height="19">
<path d="M7.72363 5.71289H28.8616V23.5992H7.72363V5.71289Z" fill="white"/>
</mask>
<g mask="url(#mask109_928_100887)">
<path d="M21.9125 7.53159C21.3309 8.74442 20.1384 10.2935 17.7016 11.1354C14.9703 12.0788 12.8396 14.2412 12.961 16.625" stroke="#319044" stroke-width="1.21385"/>
</g>
</g>
<rect x="3.1" y="2.32656" width="31.8" height="31.8" rx="7.9" stroke="#D0D5DD" stroke-width="0.2"/>
</g>
<path d="M47.7907 10.8984H46.7135C46.5789 10.8984 46.534 10.8199 46.5789 10.6628L48.3518 3.91905C48.4041 3.76196 48.5163 3.68341 48.6884 3.68341H50.1808C50.3678 3.68341 50.48 3.76196 50.5174 3.91905L52.2903 10.6628C52.3352 10.8199 52.2903 10.8984 52.1556 10.8984H51.0784C50.9962 10.8984 50.9401 10.8835 50.9101 10.8536C50.8802 10.8162 50.8578 10.7526 50.8428 10.6628L50.5286 9.4285H48.3405L48.0264 10.6628C48.0114 10.7526 47.9852 10.8162 47.9478 10.8536C47.9179 10.8835 47.8655 10.8984 47.7907 10.8984ZM49.4178 5.04114L48.6098 8.28397H50.2705L49.4626 5.04114H49.4178ZM54.4743 10.8984H53.5206C53.3635 10.8984 53.2849 10.8199 53.2849 10.6628V3.91905C53.2849 3.76196 53.3635 3.68341 53.5206 3.68341H57.1C57.2496 3.68341 57.3244 3.76196 57.3244 3.91905V4.68207C57.3244 4.83916 57.2496 4.91771 57.1 4.91771H54.8446C54.7549 4.91771 54.71 4.95885 54.71 5.04114V6.78038C54.71 6.87014 54.7549 6.91503 54.8446 6.91503H56.7634C56.9205 6.91503 56.999 6.99357 56.999 7.15066V7.90246C56.999 8.06704 56.9205 8.14932 56.7634 8.14932H54.8446C54.7549 8.14932 54.71 8.19047 54.71 8.27275V10.6628C54.71 10.8199 54.6314 10.8984 54.4743 10.8984ZM59.5259 10.8984H58.5721C58.4151 10.8984 58.3365 10.8199 58.3365 10.6628V3.91905C58.3365 3.76196 58.4151 3.68341 58.5721 3.68341H61.2427C61.8262 3.68341 62.2825 3.84425 62.6117 4.16591C62.9408 4.48758 63.1054 4.94015 63.1054 5.52364V6.39887C63.1054 7.24417 62.7725 7.80522 62.1067 8.082V8.12688L63.3074 10.6291C63.3747 10.8087 63.3111 10.8984 63.1166 10.8984H62.2077C62.0731 10.8984 61.9758 10.8835 61.916 10.8536C61.8561 10.8236 61.8075 10.76 61.7701 10.6628L60.648 8.23909H59.8962C59.8064 8.23909 59.7616 8.28023 59.7616 8.36252V10.6628C59.7616 10.8199 59.683 10.8984 59.5259 10.8984ZM59.885 7.09456H60.9846C61.224 7.09456 61.3998 7.04594 61.512 6.94869C61.6242 6.84396 61.6803 6.67939 61.6803 6.45497V5.57974C61.6803 5.34784 61.6242 5.17953 61.512 5.0748C61.3998 4.97007 61.224 4.91771 60.9846 4.91771H59.885C59.8027 4.91771 59.7616 4.95885 59.7616 5.04114V6.97113C59.7616 7.05342 59.8027 7.09456 59.885 7.09456ZM65.9541 3.91905V10.6628C65.9541 10.8199 65.8755 10.8984 65.7184 10.8984H64.7647C64.6076 10.8984 64.529 10.8199 64.529 10.6628V3.91905C64.529 3.76196 64.6076 3.68341 64.7647 3.68341H65.7184C65.8755 3.68341 65.9541 3.76196 65.9541 3.91905ZM70.4267 10.8984H69.2037C68.6127 10.8984 68.1564 10.7413 67.8347 10.4272C67.5131 10.113 67.3522 9.6604 67.3522 9.06943V5.51242C67.3522 4.92145 67.5131 4.46888 67.8347 4.15469C68.1564 3.84051 68.6127 3.68341 69.2037 3.68341H70.4267C71.0102 3.68341 71.4628 3.84425 71.7845 4.16591C72.1136 4.4801 72.2782 4.92893 72.2782 5.51242V6.0398C72.2782 6.20437 72.1959 6.28666 72.0313 6.28666H71.0888C70.9317 6.28666 70.8531 6.20437 70.8531 6.0398V5.57974C70.8531 5.34036 70.8008 5.17205 70.696 5.0748C70.5988 4.97007 70.4305 4.91771 70.1911 4.91771H69.4281C69.1962 4.91771 69.0279 4.97007 68.9231 5.0748C68.8259 5.17205 68.7773 5.34036 68.7773 5.57974V9.00211C68.7773 9.24149 68.8259 9.41354 68.9231 9.51827C69.0279 9.61552 69.1962 9.66414 69.4281 9.66414H70.1911C70.4305 9.66414 70.5988 9.61552 70.696 9.51827C70.8008 9.41354 70.8531 9.24149 70.8531 9.00211V8.54205C70.8531 8.37748 70.9317 8.29519 71.0888 8.29519H72.0313C72.1959 8.29519 72.2782 8.37748 72.2782 8.54205V9.06943C72.2782 9.65292 72.1136 10.1055 71.7845 10.4272C71.4628 10.7413 71.0102 10.8984 70.4267 10.8984ZM74.254 10.8984H73.1768C73.0422 10.8984 72.9973 10.8199 73.0422 10.6628L74.8151 3.91905C74.8674 3.76196 74.9796 3.68341 75.1517 3.68341H76.6441C76.8311 3.68341 76.9433 3.76196 76.9807 3.91905L78.7536 10.6628C78.7985 10.8199 78.7536 10.8984 78.6189 10.8984H77.5417C77.4595 10.8984 77.4033 10.8835 77.3734 10.8536C77.3435 10.8162 77.3211 10.7526 77.3061 10.6628L76.9919 9.4285H74.8038L74.4897 10.6628C74.4747 10.7526 74.4485 10.8162 74.4111 10.8536C74.3812 10.8835 74.3288 10.8984 74.254 10.8984ZM75.881 5.04114L75.0731 8.28397H76.7338L75.9259 5.04114H75.881ZM80.9152 10.8984H79.9839C79.8268 10.8984 79.7482 10.8199 79.7482 10.6628V3.91905C79.7482 3.76196 79.8268 3.68341 79.9839 3.68341H80.8254C80.9825 3.68341 81.0872 3.73578 81.1396 3.84051L83.4062 8.09322H83.4511V3.91905C83.4511 3.76196 83.5297 3.68341 83.6867 3.68341H84.6181C84.7752 3.68341 84.8537 3.76196 84.8537 3.91905V10.6628C84.8537 10.8199 84.7752 10.8984 84.6181 10.8984H83.799C83.6344 10.8984 83.5147 10.8236 83.4399 10.674L81.1957 6.49985H81.1508V10.6628C81.1508 10.8199 81.0723 10.8984 80.9152 10.8984ZM89.9669 10.8984H89.0132C88.8561 10.8984 88.7775 10.8199 88.7775 10.6628V3.91905C88.7775 3.76196 88.8561 3.68341 89.0132 3.68341H91.751C92.3345 3.68341 92.7871 3.84425 93.1088 4.16591C93.4304 4.4801 93.5913 4.92893 93.5913 5.51242V6.58962C93.5913 7.17311 93.4304 7.62568 93.1088 7.94735C92.7871 8.26153 92.3345 8.41862 91.751 8.41862H90.3372C90.2475 8.41862 90.2026 8.45977 90.2026 8.54205V10.6628C90.2026 10.8199 90.124 10.8984 89.9669 10.8984ZM90.326 7.17311H91.5154C91.7548 7.17311 91.9231 7.12448 92.0204 7.02724C92.1176 6.92251 92.1662 6.75419 92.1662 6.5223V5.57974C92.1662 5.34036 92.1176 5.17205 92.0204 5.0748C91.9231 4.97007 91.7548 4.91771 91.5154 4.91771H90.326C90.2437 4.91771 90.2026 4.95885 90.2026 5.04114V7.04968C90.2026 7.13196 90.2437 7.17311 90.326 7.17311ZM95.4794 10.8984H94.4022C94.2676 10.8984 94.2227 10.8199 94.2676 10.6628L96.0405 3.91905C96.0929 3.76196 96.2051 3.68341 96.3771 3.68341H97.8695C98.0565 3.68341 98.1687 3.76196 98.2061 3.91905L99.979 10.6628C100.024 10.8199 99.979 10.8984 99.8444 10.8984H98.7672C98.6849 10.8984 98.6288 10.8835 98.5989 10.8536C98.5689 10.8162 98.5465 10.7526 98.5315 10.6628L98.2173 9.4285H96.0293L95.7151 10.6628C95.7001 10.7526 95.6739 10.8162 95.6365 10.8536C95.6066 10.8835 95.5543 10.8984 95.4794 10.8984ZM97.1065 5.04114L96.2986 8.28397H97.9593L97.1514 5.04114H97.1065ZM103.207 10.8984H102.264C102.099 10.8984 102.017 10.8199 102.017 10.6628V5.04114C102.017 4.95885 101.976 4.91771 101.894 4.91771H100.615C100.457 4.91771 100.379 4.83916 100.379 4.68207V3.91905C100.379 3.76196 100.457 3.68341 100.615 3.68341H104.856C105.013 3.68341 105.092 3.76196 105.092 3.91905V4.68207C105.092 4.83916 105.013 4.91771 104.856 4.91771H103.577C103.487 4.91771 103.442 4.95885 103.442 5.04114V10.6628C103.442 10.8199 103.364 10.8984 103.207 10.8984ZM107.138 10.8984H106.184C106.027 10.8984 105.949 10.8199 105.949 10.6628V3.91905C105.949 3.76196 106.027 3.68341 106.184 3.68341H107.138C107.295 3.68341 107.374 3.76196 107.374 3.91905V6.55596C107.374 6.63824 107.418 6.67939 107.508 6.67939H109.405C109.487 6.67939 109.528 6.63824 109.528 6.55596V3.91905C109.528 3.76196 109.607 3.68341 109.764 3.68341H110.717C110.874 3.68341 110.953 3.76196 110.953 3.91905V10.6628C110.953 10.8199 110.874 10.8984 110.717 10.8984H109.764C109.607 10.8984 109.528 10.8199 109.528 10.6628V8.03711C109.528 7.95483 109.487 7.91368 109.405 7.91368H107.508C107.418 7.91368 107.374 7.95483 107.374 8.03711V10.6628C107.374 10.8199 107.295 10.8984 107.138 10.8984ZM114.377 9.66414H115.174C115.413 9.66414 115.582 9.61552 115.679 9.51827C115.784 9.41354 115.836 9.24149 115.836 9.00211V5.57974C115.836 5.34036 115.784 5.17205 115.679 5.0748C115.582 4.97007 115.413 4.91771 115.174 4.91771H114.377C114.138 4.91771 113.97 4.97007 113.872 5.0748C113.775 5.17205 113.727 5.34036 113.727 5.57974V9.00211C113.727 9.24149 113.775 9.41354 113.872 9.51827C113.97 9.61552 114.138 9.66414 114.377 9.66414ZM115.41 10.8984H114.153C113.562 10.8984 113.106 10.7413 112.784 10.4272C112.462 10.113 112.301 9.6604 112.301 9.06943V5.51242C112.301 4.92145 112.462 4.46888 112.784 4.15469C113.106 3.84051 113.562 3.68341 114.153 3.68341H115.41C116.001 3.68341 116.457 3.84051 116.779 4.15469C117.1 4.46888 117.261 4.92145 117.261 5.51242V9.06943C117.261 9.6604 117.1 10.113 116.779 10.4272C116.457 10.7413 116.001 10.8984 115.41 10.8984ZM121.534 10.8984H120.344C119.753 10.8984 119.297 10.7413 118.975 10.4272C118.654 10.113 118.493 9.6604 118.493 9.06943V5.51242C118.493 4.92145 118.654 4.46888 118.975 4.15469C119.297 3.84051 119.753 3.68341 120.344 3.68341H121.534C122.117 3.68341 122.57 3.84425 122.891 4.16591C123.213 4.4801 123.374 4.92893 123.374 5.51242V5.84904C123.374 6.01362 123.295 6.0959 123.138 6.0959H122.184C122.027 6.0959 121.949 6.01362 121.949 5.84904V5.57974C121.949 5.34036 121.9 5.17205 121.803 5.0748C121.706 4.97007 121.537 4.91771 121.298 4.91771H120.569C120.337 4.91771 120.168 4.97007 120.064 5.0748C119.966 5.17205 119.918 5.34036 119.918 5.57974V9.00211C119.918 9.24149 119.966 9.41354 120.064 9.51827C120.168 9.61552 120.337 9.66414 120.569 9.66414H121.298C121.537 9.66414 121.706 9.61552 121.803 9.51827C121.9 9.41354 121.949 9.24149 121.949 9.00211V8.29519C121.949 8.21291 121.908 8.17176 121.825 8.17176H121.152C120.995 8.17176 120.916 8.09322 120.916 7.93613V7.17311C120.916 7.01601 120.995 6.93747 121.152 6.93747H123.116C123.288 6.93747 123.374 7.02349 123.374 7.19555V9.06943C123.374 9.65292 123.213 10.1055 122.891 10.4272C122.57 10.7413 122.117 10.8984 121.534 10.8984ZM128.624 10.8984H124.955C124.798 10.8984 124.719 10.8199 124.719 10.6628V3.91905C124.719 3.76196 124.798 3.68341 124.955 3.68341H128.624C128.774 3.68341 128.849 3.76196 128.849 3.91905V4.68207C128.849 4.83916 128.774 4.91771 128.624 4.91771H126.279C126.189 4.91771 126.144 4.95885 126.144 5.04114V6.49985C126.144 6.58214 126.189 6.62328 126.279 6.62328H128.198C128.355 6.62328 128.433 6.70183 128.433 6.85892V7.62194C128.433 7.77903 128.355 7.85758 128.198 7.85758H126.279C126.189 7.85758 126.144 7.89872 126.144 7.98101V9.54071C126.144 9.623 126.189 9.66414 126.279 9.66414H128.624C128.774 9.66414 128.849 9.74269 128.849 9.89978V10.6628C128.849 10.8199 128.774 10.8984 128.624 10.8984ZM131.256 10.8984H130.324C130.167 10.8984 130.089 10.8199 130.089 10.6628V3.91905C130.089 3.76196 130.167 3.68341 130.324 3.68341H131.166C131.323 3.68341 131.428 3.73578 131.48 3.84051L133.747 8.09322H133.792V3.91905C133.792 3.76196 133.87 3.68341 134.027 3.68341H134.959C135.116 3.68341 135.194 3.76196 135.194 3.91905V10.6628C135.194 10.8199 135.116 10.8984 134.959 10.8984H134.139C133.975 10.8984 133.855 10.8236 133.78 10.674L131.536 6.49985H131.491V10.6628C131.491 10.8199 131.413 10.8984 131.256 10.8984Z" fill="#111322"/>
<path d="M48.7557 20.9933H49.4963C49.9975 20.9933 50.2855 20.7689 50.3603 20.32L48.5986 18.2666C48.06 18.2965 47.7907 18.6294 47.7907 19.2653V20.0507C47.7907 20.6791 48.1124 20.9933 48.7557 20.9933ZM49.4963 21.7227H48.6547C48.1386 21.7227 47.7346 21.5805 47.4429 21.2963C47.1511 21.0045 47.0053 20.6006 47.0053 20.0844V19.2204C47.0053 18.8464 47.1025 18.521 47.297 18.2442C47.4915 17.9599 47.7832 17.8066 48.1722 17.7841C47.8431 17.3877 47.6785 16.95 47.6785 16.4713V16.1459C47.6785 15.6297 47.8319 15.2295 48.1386 14.9452C48.4453 14.6535 48.8567 14.5076 49.3729 14.5076H49.6758C50.192 14.5076 50.5959 14.6535 50.8877 14.9452C51.1794 15.2295 51.3253 15.6297 51.3253 16.1459V16.6172C51.3253 16.7294 51.2767 16.7855 51.1794 16.7855H50.6745C50.5698 16.7855 50.5174 16.7294 50.5174 16.6172V16.1571C50.5174 15.5213 50.2182 15.2033 49.6197 15.2033H49.4402C48.8193 15.2033 48.5089 15.5213 48.5089 16.1571V16.4825C48.5089 16.8491 48.6734 17.2156 49.0026 17.5822L49.6534 18.334H52.2791C52.3913 18.334 52.4474 18.3863 52.4474 18.491V18.9062C52.4474 19.0035 52.3913 19.0521 52.2791 19.0521H50.2593L52.4362 21.5992C52.4586 21.6217 52.4661 21.6479 52.4586 21.6778C52.4511 21.7077 52.4287 21.7227 52.3913 21.7227H51.7405C51.6357 21.7227 51.5497 21.6853 51.4824 21.6104L50.8765 20.9035C50.6895 21.4496 50.2294 21.7227 49.4963 21.7227ZM57.7374 21.0045H59.6225C60.2509 21.0045 60.5651 20.6791 60.5651 20.0283V16.202C60.5651 15.5512 60.2509 15.2258 59.6225 15.2258H57.7374C57.6626 15.2258 57.6252 15.2594 57.6252 15.3268V20.9035C57.6252 20.9709 57.6626 21.0045 57.7374 21.0045ZM56.8061 21.5656V14.6647C56.8061 14.56 56.8585 14.5076 56.9632 14.5076H59.7235C60.2397 14.5076 60.6436 14.6572 60.9354 14.9565C61.2346 15.2482 61.3842 15.6522 61.3842 16.1683V20.062C61.3842 20.5781 61.2346 20.9858 60.9354 21.285C60.6436 21.5768 60.2397 21.7227 59.7235 21.7227H56.9632C56.8585 21.7227 56.8061 21.6703 56.8061 21.5656ZM63.1309 21.7227H62.5698C62.4726 21.7227 62.4389 21.6703 62.4689 21.5656L64.5672 14.6647C64.5971 14.56 64.6682 14.5076 64.7804 14.5076H65.5883C65.7005 14.5076 65.7715 14.56 65.8015 14.6647L67.8998 21.5656C67.9297 21.6703 67.896 21.7227 67.7988 21.7227H67.2265C67.1442 21.7227 67.0919 21.6703 67.0694 21.5656L66.542 19.9273H63.8266L63.2992 21.5656C63.2693 21.6703 63.2132 21.7227 63.1309 21.7227ZM65.1619 15.3492L64.0061 19.2316H66.3625L65.2068 15.3492H65.1619ZM70.8625 21.7227H70.3576C70.2528 21.7227 70.2005 21.6703 70.2005 21.5656V15.3268C70.2005 15.2594 70.1631 15.2258 70.0883 15.2258H68.5622C68.45 15.2258 68.3939 15.1734 68.3939 15.0687V14.6647C68.3939 14.56 68.45 14.5076 68.5622 14.5076H72.6579C72.7701 14.5076 72.8262 14.56 72.8262 14.6647V15.0687C72.8262 15.1734 72.7701 15.2258 72.6579 15.2258H71.1318C71.057 15.2258 71.0196 15.2594 71.0196 15.3268V21.5656C71.0196 21.6703 70.9672 21.7227 70.8625 21.7227ZM73.9792 21.7227H73.4182C73.3209 21.7227 73.2872 21.6703 73.3172 21.5656L75.4155 14.6647C75.4454 14.56 75.5165 14.5076 75.6287 14.5076H76.4366C76.5488 14.5076 76.6198 14.56 76.6498 14.6647L78.7481 21.5656C78.778 21.6703 78.7443 21.7227 78.6471 21.7227H78.0748C77.9925 21.7227 77.9402 21.6703 77.9177 21.5656L77.3903 19.9273H74.6749L74.1475 21.5656C74.1176 21.6703 74.0615 21.7227 73.9792 21.7227ZM76.0102 15.3492L74.8544 19.2316H77.2108L76.0551 15.3492H76.0102ZM82.7196 20.062V19.7029C82.7196 19.5982 82.772 19.5458 82.8767 19.5458H83.3817C83.4864 19.5458 83.5388 19.5982 83.5388 19.7029V19.9946C83.5388 20.6679 83.8717 21.0045 84.5374 21.0045H85.5249C86.1906 21.0045 86.5235 20.6604 86.5235 19.9722V19.5907C86.5235 19.0521 86.0784 18.7005 85.1882 18.5359C84.8142 18.4686 84.4402 18.3901 84.0662 18.3003C83.6921 18.2105 83.3742 18.0385 83.1124 17.7841C82.8506 17.5223 82.7196 17.167 82.7196 16.7181V16.1683C82.7196 15.6522 82.8655 15.2482 83.1573 14.9565C83.4565 14.6572 83.8642 14.5076 84.3803 14.5076H85.6259C86.1345 14.5076 86.5385 14.6572 86.8377 14.9565C87.1369 15.2482 87.2865 15.6522 87.2865 16.1683V16.4488C87.2865 16.5611 87.2379 16.6172 87.1407 16.6172H86.6245C86.5273 16.6172 86.4786 16.5611 86.4786 16.4488V16.2469C86.4786 15.5661 86.1458 15.2258 85.48 15.2258H84.5262C83.8604 15.2258 83.5275 15.5811 83.5275 16.2918V16.7406C83.5275 17.1221 83.7781 17.3839 84.2793 17.526C84.5038 17.5859 84.7506 17.642 85.0199 17.6944C85.2892 17.7392 85.5585 17.8028 85.8278 17.8851C86.1046 17.9599 86.3552 18.0572 86.5796 18.1769C86.804 18.2891 86.9836 18.4649 87.1182 18.7042C87.2604 18.9361 87.3314 19.2204 87.3314 19.557V20.062C87.3314 20.5781 87.1818 20.9858 86.8826 21.285C86.5834 21.5768 86.1794 21.7227 85.6707 21.7227H84.3803C83.8717 21.7227 83.4677 21.5768 83.1685 21.285C82.8693 20.9858 82.7196 20.5781 82.7196 20.062ZM89.6843 21.7227H89.1794C89.0746 21.7227 89.0223 21.6703 89.0223 21.5656V14.6647C89.0223 14.56 89.0746 14.5076 89.1794 14.5076H89.6843C89.789 14.5076 89.8414 14.56 89.8414 14.6647V17.6158C89.8414 17.6831 89.8788 17.7168 89.9536 17.7168H92.7364C92.8112 17.7168 92.8486 17.6831 92.8486 17.6158V14.6647C92.8486 14.56 92.901 14.5076 93.0057 14.5076H93.5106C93.6154 14.5076 93.6677 14.56 93.6677 14.6647V21.5656C93.6677 21.6703 93.6154 21.7227 93.5106 21.7227H93.0057C92.901 21.7227 92.8486 21.6703 92.8486 21.5656V18.5359C92.8486 18.4686 92.8112 18.4349 92.7364 18.4349H89.9536C89.8788 18.4349 89.8414 18.4686 89.8414 18.5359V21.5656C89.8414 21.6703 89.789 21.7227 89.6843 21.7227ZM95.5334 21.7227H94.9723C94.8751 21.7227 94.8414 21.6703 94.8713 21.5656L96.9696 14.6647C96.9996 14.56 97.0706 14.5076 97.1828 14.5076H97.9907C98.1029 14.5076 98.174 14.56 98.2039 14.6647L100.302 21.5656C100.332 21.6703 100.298 21.7227 100.201 21.7227H99.629C99.5467 21.7227 99.4943 21.6703 99.4719 21.5656L98.9445 19.9273H96.2291L95.7017 21.5656C95.6718 21.6703 95.6156 21.7227 95.5334 21.7227ZM97.5643 15.3492L96.4086 19.2316H98.765L97.6092 15.3492H97.5643ZM102.165 21.7227H101.66C101.556 21.7227 101.503 21.6703 101.503 21.5656V14.6647C101.503 14.56 101.556 14.5076 101.66 14.5076H104.241C104.757 14.5076 105.165 14.6572 105.464 14.9565C105.763 15.2482 105.913 15.6522 105.913 16.1683V17.1894C105.913 17.6083 105.812 17.9562 105.61 18.233C105.408 18.5023 105.128 18.6818 104.769 18.7716V18.8164L106.07 21.5431C106.138 21.6628 106.1 21.7227 105.958 21.7227H105.453C105.326 21.7227 105.232 21.6703 105.173 21.5656L103.916 18.8501H102.435C102.36 18.8501 102.322 18.8838 102.322 18.9511V21.5656C102.322 21.6703 102.27 21.7227 102.165 21.7227ZM102.435 18.1656H104.129C104.772 18.1656 105.094 17.844 105.094 17.2006V16.202C105.094 15.5512 104.772 15.2258 104.129 15.2258H102.435C102.36 15.2258 102.322 15.2594 102.322 15.3268V18.0647C102.322 18.132 102.36 18.1656 102.435 18.1656ZM108.405 14.6647V21.5656C108.405 21.6703 108.353 21.7227 108.248 21.7227H107.743C107.639 21.7227 107.586 21.6703 107.586 21.5656V14.6647C107.586 14.56 107.639 14.5076 107.743 14.5076H108.248C108.353 14.5076 108.405 14.56 108.405 14.6647ZM110.888 21.7227H110.394C110.289 21.7227 110.237 21.6703 110.237 21.5656V14.6647C110.237 14.56 110.289 14.5076 110.394 14.5076H110.854C110.944 14.5076 111.003 14.5376 111.033 14.5974L114.13 20.0395H114.175V14.6647C114.175 14.56 114.228 14.5076 114.332 14.5076H114.826C114.931 14.5076 114.983 14.56 114.983 14.6647V21.5656C114.983 21.6703 114.931 21.7227 114.826 21.7227H114.411C114.329 21.7227 114.25 21.674 114.175 21.5768L111.09 16.1908H111.045V21.5656C111.045 21.6703 110.992 21.7227 110.888 21.7227ZM119.517 21.7227H118.305C117.789 21.7227 117.381 21.5768 117.082 21.285C116.79 20.9933 116.644 20.5856 116.644 20.062V16.1683C116.644 15.6447 116.79 15.237 117.082 14.9452C117.381 14.6535 117.789 14.5076 118.305 14.5076H119.517C120.033 14.5076 120.437 14.6572 120.729 14.9565C121.021 15.2482 121.166 15.6522 121.166 16.1683V16.6284C121.166 16.7406 121.114 16.7967 121.009 16.7967H120.504C120.4 16.7967 120.347 16.7406 120.347 16.6284V16.202C120.347 15.5512 120.037 15.2258 119.416 15.2258H118.395C117.774 15.2258 117.464 15.5512 117.464 16.202V20.0283C117.464 20.6791 117.774 21.0045 118.395 21.0045H119.416C120.037 21.0045 120.347 20.6791 120.347 20.0283V18.7716C120.347 18.6968 120.314 18.6594 120.246 18.6594H119.136C119.031 18.6594 118.978 18.6107 118.978 18.5135V18.0983C118.978 17.9936 119.031 17.9412 119.136 17.9412H120.942C121.092 17.9412 121.166 18.0198 121.166 18.1769V20.062C121.166 20.5856 121.021 20.9933 120.729 21.285C120.437 21.5768 120.033 21.7227 119.517 21.7227Z" fill="#111322"/>
<path d="M47.2858 32.5547H46.7247C46.6275 32.5547 46.5938 32.5023 46.6238 32.3976L48.7221 25.4968C48.752 25.392 48.823 25.3397 48.9353 25.3397H49.7432C49.8554 25.3397 49.9264 25.392 49.9564 25.4968L52.0547 32.3976C52.0846 32.5023 52.0509 32.5547 51.9537 32.5547H51.3814C51.2991 32.5547 51.2468 32.5023 51.2243 32.3976L50.6969 30.7593H47.9815L47.4541 32.3976C47.4242 32.5023 47.3681 32.5547 47.2858 32.5547ZM49.3168 26.1812L48.161 30.0637H50.5174L49.3616 26.1812H49.3168ZM53.9178 32.5547H53.4128C53.3081 32.5547 53.2557 32.5023 53.2557 32.3976V25.4968C53.2557 25.392 53.3081 25.3397 53.4128 25.3397H55.9936C56.5098 25.3397 56.9175 25.4893 57.2167 25.7885C57.5159 26.0802 57.6655 26.4842 57.6655 27.0004V28.0215C57.6655 28.4404 57.5645 28.7882 57.3626 29.065C57.1606 29.3343 56.8801 29.5138 56.521 29.6036V29.6485L57.8226 32.3752C57.89 32.4948 57.8525 32.5547 57.7104 32.5547H57.2055C57.0783 32.5547 56.9848 32.5023 56.925 32.3976L55.6682 29.6821H54.1871C54.1123 29.6821 54.0749 29.7158 54.0749 29.7831V32.3976C54.0749 32.5023 54.0225 32.5547 53.9178 32.5547ZM54.1871 28.9977H55.8814C56.5247 28.9977 56.8464 28.676 56.8464 28.0327V27.034C56.8464 26.3832 56.5247 26.0578 55.8814 26.0578H54.1871C54.1123 26.0578 54.0749 26.0915 54.0749 26.1588V28.8967C54.0749 28.964 54.1123 28.9977 54.1871 28.9977ZM62.1776 32.5547H60.831C60.3149 32.5547 59.9072 32.4088 59.608 32.1171C59.3162 31.8253 59.1704 31.4176 59.1704 30.894V27.0004C59.1704 26.4767 59.3162 26.069 59.608 25.7773C59.9072 25.4855 60.3149 25.3397 60.831 25.3397H62.1776C62.6937 25.3397 63.0977 25.4855 63.3894 25.7773C63.6886 26.069 63.8382 26.4767 63.8382 27.0004V27.5502C63.8382 27.6549 63.7859 27.7073 63.6812 27.7073H63.1762C63.0715 27.7073 63.0191 27.6549 63.0191 27.5502V27.034C63.0191 26.3832 62.7049 26.0578 62.0766 26.0578H60.9208C60.2999 26.0578 59.9895 26.3832 59.9895 27.034V30.8603C59.9895 31.5111 60.2999 31.8366 60.9208 31.8366H62.0766C62.7049 31.8366 63.0191 31.5111 63.0191 30.8603V30.3442C63.0191 30.2394 63.0715 30.1871 63.1762 30.1871H63.6812C63.7859 30.1871 63.8382 30.2394 63.8382 30.3442V30.894C63.8382 31.4176 63.6886 31.8253 63.3894 32.1171C63.0977 32.4088 62.6937 32.5547 62.1776 32.5547ZM66.0153 32.5547H65.5103C65.4056 32.5547 65.3532 32.5023 65.3532 32.3976V25.4968C65.3532 25.392 65.4056 25.3397 65.5103 25.3397H66.0153C66.12 25.3397 66.1724 25.392 66.1724 25.4968V28.4478C66.1724 28.5152 66.2098 28.5488 66.2846 28.5488H69.0673C69.1422 28.5488 69.1796 28.5152 69.1796 28.4478V25.4968C69.1796 25.392 69.2319 25.3397 69.3366 25.3397H69.8416C69.9463 25.3397 69.9987 25.392 69.9987 25.4968V32.3976C69.9987 32.5023 69.9463 32.5547 69.8416 32.5547H69.3366C69.2319 32.5547 69.1796 32.5023 69.1796 32.3976V29.368C69.1796 29.3006 69.1422 29.267 69.0673 29.267H66.2846C66.2098 29.267 66.1724 29.3006 66.1724 29.368V32.3976C66.1724 32.5023 66.12 32.5547 66.0153 32.5547ZM72.6498 25.4968V32.3976C72.6498 32.5023 72.5974 32.5547 72.4927 32.5547H71.9878C71.883 32.5547 71.8307 32.5023 71.8307 32.3976V25.4968C71.8307 25.392 71.883 25.3397 71.9878 25.3397H72.4927C72.5974 25.3397 72.6498 25.392 72.6498 25.4968ZM76.8375 32.5547H76.0409C75.9436 32.5547 75.88 32.5023 75.8501 32.3976L73.864 25.508C73.8416 25.3958 73.8902 25.3397 74.0099 25.3397H74.5597C74.657 25.3397 74.7168 25.392 74.7392 25.4968L76.4111 31.6346H76.456L78.1279 25.4968C78.1504 25.392 78.2102 25.3397 78.3075 25.3397H78.8685C78.9807 25.3397 79.0256 25.3958 79.0032 25.508L77.0171 32.3976C76.9872 32.5023 76.9273 32.5547 76.8375 32.5547ZM83.8378 32.5547H80.3144C80.2097 32.5547 80.1573 32.5023 80.1573 32.3976V25.4968C80.1573 25.392 80.2097 25.3397 80.3144 25.3397H83.8378C83.9425 25.3397 83.9949 25.392 83.9949 25.4968V25.9007C83.9949 26.0054 83.9425 26.0578 83.8378 26.0578H81.0887C81.0139 26.0578 80.9765 26.0915 80.9765 26.1588V28.4254C80.9765 28.4927 81.0139 28.5264 81.0887 28.5264H83.4899C83.5947 28.5264 83.647 28.5788 83.647 28.6835V29.0874C83.647 29.1922 83.5947 29.2445 83.4899 29.2445H81.0887C81.0139 29.2445 80.9765 29.2782 80.9765 29.3455V31.7356C80.9765 31.8029 81.0139 31.8366 81.0887 31.8366H83.8378C83.9425 31.8366 83.9949 31.8889 83.9949 31.9936V32.3976C83.9949 32.5023 83.9425 32.5547 83.8378 32.5547Z" fill="#111322"/>
<defs>
<filter id="filter0_dd_928_100887" x="0" y="0.226562" width="38" height="38" filterUnits="userSpaceOnUse" color-interpolation-filters="sRGB">
<feFlood flood-opacity="0" result="BackgroundImageFix"/>
<feColorMatrix in="SourceAlpha" type="matrix" values="0 0 0 0 0 0 0 0 0 0 0 0 0 0 0 0 0 0 127 0" result="hardAlpha"/>
<feOffset dy="1"/>
<feGaussianBlur stdDeviation="1"/>
<feColorMatrix type="matrix" values="0 0 0 0 0.0627451 0 0 0 0 0.0941176 0 0 0 0 0.156863 0 0 0 0.06 0"/>
<feBlend mode="normal" in2="BackgroundImageFix" result="effect1_dropShadow_928_100887"/>
<feColorMatrix in="SourceAlpha" type="matrix" values="0 0 0 0 0 0 0 0 0 0 0 0 0 0 0 0 0 0 127 0" result="hardAlpha"/>
<feOffset dy="1"/>
<feGaussianBlur stdDeviation="1.5"/>
<feColorMatrix type="matrix" values="0 0 0 0 0.0627451 0 0 0 0 0.0941176 0 0 0 0 0.156863 0 0 0 0.1 0"/>
<feBlend mode="normal" in2="effect1_dropShadow_928_100887" result="effect2_dropShadow_928_100887"/>
<feBlend mode="normal" in="SourceGraphic" in2="effect2_dropShadow_928_100887" result="shape"/>
</filter>
<clipPath id="clip0_928_100887">
<rect x="3" y="2.22656" width="32" height="32" rx="8" fill="white"/>
</clipPath>
</defs>
</svg>
